<svg width="28" height="29" viewBox="0 0 28 29" fill="none" xmlns="http://www.w3.org/2000/svg">
<g filter="url(#filter0_d_704_2140)">
<path d="M11 1V3H17V1H19V3H23C23.2652 3 23.5196 3.10536 23.7071 3.29289C23.8946 3.48043 24 3.73478 24 4V20C24 20.2652 23.8946 20.5196 23.7071 20.7071C23.5196 20.8946 23.2652 21 23 21H5C4.73478 21 4.48043 20.8946 4.29289 20.7071C4.10536 20.5196 4 20.2652 4 20V4C4 3.73478 4.10536 3.48043 4.29289 3.29289C4.48043 3.10536 4.73478 3 5 3H9V1H11ZM22 8H6V19H22V8ZM17.036 10.136L18.45 11.55L13.5 16.5L9.964 12.964L11.38 11.55L13.501 13.672L17.037 10.136H17.036Z" fill="#082753"/>
</g>
<defs>
<filter id="filter0_d_704_2140" x="-2" y="0" width="32" height="32" filterUnits="userSpaceOnUse" color-interpolation-filters="sRGB">
<feFlood flood-opacity="0" result="BackgroundImageFix"/>
<feColorMatrix in="SourceAlpha" type="matrix" values="0 0 0 0 0 0 0 0 0 0 0 0 0 0 0 0 0 0 127 0" result="hardAlpha"/>
<feOffset dy="4"/>
<feGaussianBlur stdDeviation="2"/>
<feComposite in2="hardAlpha" operator="out"/>
<feColorMatrix type="matrix" values="0 0 0 0 0 0 0 0 0 0 0 0 0 0 0 0 0 0 0.25 0"/>
<feBlend mode="normal" in2="BackgroundImageFix" result="effect1_dropShadow_704_2140"/>
<feBlend mode="normal" in="SourceGraphic" in2="effect1_dropShadow_704_2140" result="shape"/>
</filter>
</defs>
</svg>
