<svg width="28" height="30" viewBox="0 0 28 30" fill="none" xmlns="http://www.w3.org/2000/svg">
<g filter="url(#filter0_d_704_2176)">
<path d="M4 5L11 2L17 5L23.303 2.299C23.3791 2.26638 23.4621 2.25317 23.5445 2.26054C23.627 2.26792 23.7063 2.29565 23.7754 2.34124C23.8445 2.38684 23.9012 2.44888 23.9404 2.5218C23.9796 2.59471 24.0001 2.67622 24 2.759V19L17 22L11 19L4.697 21.701C4.62091 21.7336 4.53792 21.7468 4.45547 21.7395C4.37301 21.7321 4.29368 21.7044 4.22459 21.6588C4.1555 21.6132 4.09881 21.5511 4.05961 21.4782C4.02041 21.4053 3.99993 21.3238 4 21.241V5ZM18 19.395L22 17.681V5.033L18 6.747V19.395ZM16 19.264V6.736L12 4.736V17.264L16 19.264ZM10 17.253V4.605L6 6.319V18.967L10 17.253Z" fill="#082753"/>
</g>
<defs>
<filter id="filter0_d_704_2176" x="-2" y="0" width="32" height="32" filterUnits="userSpaceOnUse" color-interpolation-filters="sRGB">
<feFlood flood-opacity="0" result="BackgroundImageFix"/>
<feColorMatrix in="SourceAlpha" type="matrix" values="0 0 0 0 0 0 0 0 0 0 0 0 0 0 0 0 0 0 127 0" result="hardAlpha"/>
<feOffset dy="4"/>
<feGaussianBlur stdDeviation="2"/>
<feComposite in2="hardAlpha" operator="out"/>
<feColorMatrix type="matrix" values="0 0 0 0 0 0 0 0 0 0 0 0 0 0 0 0 0 0 0.25 0"/>
<feBlend mode="normal" in2="BackgroundImageFix" result="effect1_dropShadow_704_2176"/>
<feBlend mode="normal" in="SourceGraphic" in2="effect1_dropShadow_704_2176" result="shape"/>
</filter>
</defs>
</svg>
