<svg width="30" height="31" viewBox="0 0 30 31" fill="none" xmlns="http://www.w3.org/2000/svg">
<g filter="url(#filter0_d_704_2146)">
<path d="M11.6859 4.00037L14.2929 1.39337C14.4804 1.2059 14.7347 1.10059 14.9999 1.10059C15.265 1.10059 15.5194 1.2059 15.7069 1.39337L18.3139 4.00037H21.9999C22.2651 4.00037 22.5195 4.10573 22.707 4.29327C22.8945 4.4808 22.9999 4.73516 22.9999 5.00037V8.68637L25.6069 11.2934C25.7944 11.4809 25.8997 11.7352 25.8997 12.0004C25.8997 12.2655 25.7944 12.5198 25.6069 12.7074L22.9999 15.3144V19.0004C22.9999 19.2656 22.8945 19.5199 22.707 19.7075C22.5195 19.895 22.2651 20.0004 21.9999 20.0004H18.3139L15.7069 22.6074C15.5194 22.7948 15.265 22.9002 14.9999 22.9002C14.7347 22.9002 14.4804 22.7948 14.2929 22.6074L11.6859 20.0004H7.99988C7.73467 20.0004 7.48031 19.895 7.29278 19.7075C7.10524 19.5199 6.99988 19.2656 6.99988 19.0004V15.3144L4.39288 12.7074C4.20541 12.5198 4.1001 12.2655 4.1001 12.0004C4.1001 11.7352 4.20541 11.4809 4.39288 11.2934L6.99988 8.68637V5.00037C6.99988 4.73516 7.10524 4.4808 7.29278 4.29327C7.48031 4.10573 7.73467 4.00037 7.99988 4.00037H11.6859ZM8.99988 6.00037V9.51537L6.51488 12.0004L8.99988 14.4854V18.0004H12.5149L14.9999 20.4854L17.4849 18.0004H20.9999V14.4854L23.4849 12.0004L20.9999 9.51537V6.00037H17.4849L14.9999 3.51537L12.5149 6.00037H8.99988ZM14.9999 16.0004C13.939 16.0004 12.9216 15.5789 12.1715 14.8288C11.4213 14.0787 10.9999 13.0612 10.9999 12.0004C10.9999 10.9395 11.4213 9.92209 12.1715 9.17195C12.9216 8.4218 13.939 8.00037 14.9999 8.00037C16.0607 8.00037 17.0782 8.4218 17.8283 9.17195C18.5785 9.92209 18.9999 10.9395 18.9999 12.0004C18.9999 13.0612 18.5785 14.0787 17.8283 14.8288C17.0782 15.5789 16.0607 16.0004 14.9999 16.0004ZM14.9999 14.0004C15.5303 14.0004 16.039 13.7897 16.4141 13.4146C16.7892 13.0395 16.9999 12.5308 16.9999 12.0004C16.9999 11.4699 16.7892 10.9612 16.4141 10.5862C16.039 10.2111 15.5303 10.0004 14.9999 10.0004C14.4695 10.0004 13.9607 10.2111 13.5857 10.5862C13.2106 10.9612 12.9999 11.4699 12.9999 12.0004C12.9999 12.5308 13.2106 13.0395 13.5857 13.4146C13.9607 13.7897 14.4695 14.0004 14.9999 14.0004Z" fill="#082753"/>
</g>
<defs>
<filter id="filter0_d_704_2146" x="-1" y="0" width="32" height="32" filterUnits="userSpaceOnUse" color-interpolation-filters="sRGB">
<feFlood flood-opacity="0" result="BackgroundImageFix"/>
<feColorMatrix in="SourceAlpha" type="matrix" values="0 0 0 0 0 0 0 0 0 0 0 0 0 0 0 0 0 0 127 0" result="hardAlpha"/>
<feOffset dy="4"/>
<feGaussianBlur stdDeviation="2"/>
<feComposite in2="hardAlpha" operator="out"/>
<feColorMatrix type="matrix" values="0 0 0 0 0 0 0 0 0 0 0 0 0 0 0 0 0 0 0.25 0"/>
<feBlend mode="normal" in2="BackgroundImageFix" result="effect1_dropShadow_704_2146"/>
<feBlend mode="normal" in="SourceGraphic" in2="effect1_dropShadow_704_2146" result="shape"/>
</filter>
</defs>
</svg>
