<svg width="28" height="30" viewBox="0 0 28 30" fill="none" xmlns="http://www.w3.org/2000/svg">
<g filter="url(#filter0_d_704_2166)">
<path d="M6.00004 16H22V5H6.00004V16ZM15 18V20H19V22H9.00004V20H13V18H4.99204C4.86073 17.9992 4.73086 17.9725 4.60988 17.9215C4.4889 17.8704 4.37919 17.7959 4.28703 17.7024C4.19488 17.6088 4.12209 17.498 4.07284 17.3763C4.02359 17.2546 3.99885 17.1243 4.00004 16.993V4.007C4.00004 3.451 4.45504 3 4.99204 3H23.008C23.556 3 24 3.449 24 4.007V16.993C24 17.549 23.545 18 23.008 18H15V18Z" fill="#082753"/>
</g>
<defs>
<filter id="filter0_d_704_2166" x="-2" y="0" width="32" height="32" filterUnits="userSpaceOnUse" color-interpolation-filters="sRGB">
<feFlood flood-opacity="0" result="BackgroundImageFix"/>
<feColorMatrix in="SourceAlpha" type="matrix" values="0 0 0 0 0 0 0 0 0 0 0 0 0 0 0 0 0 0 127 0" result="hardAlpha"/>
<feOffset dy="4"/>
<feGaussianBlur stdDeviation="2"/>
<feComposite in2="hardAlpha" operator="out"/>
<feColorMatrix type="matrix" values="0 0 0 0 0 0 0 0 0 0 0 0 0 0 0 0 0 0 0.25 0"/>
<feBlend mode="normal" in2="BackgroundImageFix" result="effect1_dropShadow_704_2166"/>
<feBlend mode="normal" in="SourceGraphic" in2="effect1_dropShadow_704_2166" result="shape"/>
</filter>
</defs>
</svg>
