<svg width="48" height="48" viewBox="0 0 48 48" fill="none" xmlns="http://www.w3.org/2000/svg">
<path d="M24.0087 23.425C24.9529 23.425 25.7625 23.0888 26.4375 22.4164C27.1125 21.744 27.45 20.9356 27.45 19.9914C27.45 19.0471 27.1121 18.2375 26.4362 17.5625C25.7603 16.8875 24.9478 16.55 23.9986 16.55C23.0495 16.55 22.2417 16.8879 21.575 17.5638C20.9083 18.2397 20.575 19.0522 20.575 20.0013C20.575 20.9504 20.9112 21.7583 21.5837 22.425C22.2561 23.0917 23.0644 23.425 24.0087 23.425ZM24 43.75C18.7 39.2167 14.75 35.022 12.15 31.1661C9.55 27.3101 8.25 23.7329 8.25 20.4344C8.25 15.5001 9.83333 11.5691 13 8.6415C16.1667 5.71383 19.8333 4.25 24 4.25C28.1667 4.25 31.8333 5.71427 35 8.6428C38.1667 11.5714 39.75 15.5035 39.75 20.4392C39.75 23.7297 38.45 27.3042 35.85 31.1625C33.25 35.0208 29.3 39.2167 24 43.75Z" fill="#E8333E"/>
<circle cx="24" cy="20" r="5" fill="#E8333E"/>
<path d="M23.6364 30H17.7216V12.5455H23.7557C25.4886 12.5455 26.9773 12.8949 28.2216 13.5938C29.4716 14.2869 30.4318 15.2841 31.1023 16.5852C31.7727 17.8864 32.108 19.4432 32.108 21.2557C32.108 23.0739 31.7699 24.6364 31.0938 25.9432C30.4233 27.25 29.4545 28.2528 28.1875 28.9517C26.9261 29.6506 25.4091 30 23.6364 30ZM20.8835 27.2642H23.483C24.6989 27.2642 25.7131 27.0426 26.5256 26.5994C27.3381 26.1506 27.9489 25.483 28.358 24.5966C28.767 23.7045 28.9716 22.5909 28.9716 21.2557C28.9716 19.9205 28.767 18.8125 28.358 17.9318C27.9489 17.0455 27.3438 16.3835 26.5426 15.946C25.7472 15.5028 24.7585 15.2812 23.5767 15.2812H20.8835V27.2642Z" fill="white"/>
</svg>
