<svg width="48" height="48" viewBox="0 0 48 48" fill="none" xmlns="http://www.w3.org/2000/svg">
<path d="M24.0087 23.425C24.9529 23.425 25.7625 23.0888 26.4375 22.4164C27.1125 21.744 27.45 20.9356 27.45 19.9914C27.45 19.0471 27.1121 18.2375 26.4362 17.5625C25.7603 16.8875 24.9478 16.55 23.9986 16.55C23.0495 16.55 22.2417 16.8879 21.575 17.5638C20.9083 18.2397 20.575 19.0522 20.575 20.0013C20.575 20.9504 20.9112 21.7583 21.5837 22.425C22.2561 23.0917 23.0644 23.425 24.0087 23.425ZM24 43.75C18.7 39.2167 14.75 35.022 12.15 31.1661C9.55 27.3101 8.25 23.7329 8.25 20.4344C8.25 15.5001 9.83333 11.5691 13 8.6415C16.1667 5.71383 19.8333 4.25 24 4.25C28.1667 4.25 31.8333 5.71427 35 8.6428C38.1667 11.5714 39.75 15.5035 39.75 20.4392C39.75 23.7297 38.45 27.3042 35.85 31.1625C33.25 35.0208 29.3 39.2167 24 43.75Z" fill="#009E65"/>
<circle cx="24" cy="20" r="5" fill="#009E65"/>
<path d="M17.7216 30V12.5455H24.267C25.608 12.5455 26.733 12.7955 27.642 13.2955C28.5568 13.7955 29.2472 14.483 29.7131 15.358C30.1847 16.2273 30.4205 17.2159 30.4205 18.3239C30.4205 19.4432 30.1847 20.4375 29.7131 21.3068C29.2415 22.1761 28.5455 22.8608 27.625 23.3608C26.7045 23.8551 25.571 24.1023 24.2244 24.1023H19.8864V21.5028H23.7983C24.5824 21.5028 25.2244 21.3665 25.7244 21.0938C26.2244 20.821 26.5938 20.446 26.8324 19.9688C27.0767 19.4915 27.1989 18.9432 27.1989 18.3239C27.1989 17.7045 27.0767 17.1591 26.8324 16.6875C26.5938 16.2159 26.2216 15.8494 25.7159 15.5881C25.2159 15.321 24.571 15.1875 23.7812 15.1875H20.8835V30H17.7216Z" fill="white"/>
</svg>
