<svg width="64" height="64" viewBox="0 0 64 64" fill="none" xmlns="http://www.w3.org/2000/svg">
<g id="quote 1" clip-path="url(#clip0_717_41)">
<path id="Vector" d="M49.1482 34.3587L49.1482 29.207L36.2775 29.207L36.2775 1.48512L64 1.48512L64 29.207L63.9993 29.207L63.9993 34.3587C63.9993 44.8199 60.9894 52.5879 55.0528 57.4481C50.946 60.8102 45.7477 62.5148 39.6019 62.5148L39.6019 47.6643C42.9382 47.6643 49.1482 47.6643 49.1482 34.3587ZM3.32415 47.6643L3.32415 62.5148C9.46956 62.5148 14.6679 60.8102 18.7746 57.4482C24.7113 52.5879 27.7215 44.8196 27.7215 34.3587L27.7215 29.207L27.7215 1.48512L-1.52068e-06 1.48512L9.02838e-07 29.207L12.8708 29.207L12.8708 34.3587C12.8704 47.6643 6.66036 47.6643 3.32415 47.6643Z" fill="#00A962"/>
</g>
<defs>
<clipPath id="clip0_717_41">
<rect width="64" height="64" fill="white" transform="translate(64 64) rotate(180)"/>
</clipPath>
</defs>
</svg>
