<svg width="176" height="37" viewBox="0 0 176 37" fill="none" xmlns="http://www.w3.org/2000/svg">
<g clip-path="url(#clip0_25_1799)">
<path d="M9.90376 3.16591C9.86636 3.09377 9.84355 3.01496 9.83663 2.934C9.8297 2.85304 9.83879 2.7715 9.86338 2.69406C9.88798 2.61661 9.92759 2.54477 9.97995 2.48263C10.0323 2.4205 10.0964 2.36929 10.1686 2.33193C12.3828 1.20594 14.8425 0.648712 17.3258 0.710468C19.8092 0.772225 22.2381 1.45103 24.3936 2.68569C24.4643 2.72635 24.5263 2.7806 24.5759 2.84533C24.6256 2.91005 24.6619 2.98396 24.6828 3.06279C24.7037 3.14163 24.7088 3.22382 24.6978 3.30464C24.6868 3.38545 24.6599 3.46329 24.6187 3.53366L17.4976 15.755C17.4433 15.8485 17.3653 15.9262 17.2714 15.9801C17.1776 16.034 17.0712 16.0623 16.963 16.0621H16.9473C16.8364 16.0592 16.7284 16.0266 16.6344 15.9678C16.5404 15.909 16.4638 15.8261 16.4127 15.7277L9.90376 3.16591ZM16.581 19.3215V19.3203L10.0718 6.75846C9.99624 6.61303 9.86618 6.50342 9.71004 6.45355C9.55391 6.40367 9.38439 6.4176 9.23848 6.49228C7.50371 7.38178 5.96168 8.60513 4.70091 10.0921C3.44013 11.5791 2.48543 13.3004 1.89159 15.1573C1.29775 17.0142 1.07648 18.97 1.24046 20.9127C1.40444 22.8553 1.95045 24.7464 2.84716 26.4774C3.74386 28.2085 4.97361 29.7454 6.46581 31C7.95801 32.2546 9.68328 33.2021 11.5426 33.7883C13.4019 34.3744 15.3587 34.5875 17.3006 34.4155C19.2426 34.2434 21.1314 33.6895 22.8587 32.7857C23.0038 32.7097 23.1129 32.5794 23.1623 32.4233C23.2117 32.2671 23.1974 32.0978 23.1224 31.9522L16.581 19.3215ZM24.2111 31.195L24.2606 31.2941C24.3354 31.4402 24.4643 31.5513 24.6198 31.6037C24.6836 31.6249 24.7509 31.6333 24.818 31.6285C24.916 31.6258 25.0126 31.6048 25.1029 31.5666C25.3283 31.4549 25.5475 31.3308 25.7594 31.195C26.3894 30.8295 26.9899 30.4153 27.5554 29.9564H23.567L24.2111 31.195ZM22.9229 28.7177H28.9055C29.2902 28.3312 29.6462 27.9172 29.9707 27.4791H22.2788L22.9229 28.7177ZM21.6471 26.2404H30.8502C31.1039 25.8428 31.3314 25.429 31.5314 25.0018H21.003L21.6471 26.2404ZM20.3589 23.7631H32.0764C32.2408 23.3588 32.3814 22.9452 32.4976 22.5245H19.7148L20.3589 23.7631ZM19.0707 21.2859H32.8072C32.8815 20.8771 32.9435 20.4684 32.9806 20.0472H18.439L19.0707 21.2859ZM25.7098 5.62944C25.6403 5.58621 25.5623 5.55832 25.4812 5.54764C25.4 5.53696 25.3175 5.54374 25.2391 5.56751C25.1589 5.58583 25.0833 5.62062 25.0172 5.66965C24.9511 5.71869 24.8959 5.78092 24.8551 5.8524L24.5207 6.42217H26.9113C26.5253 6.13663 26.1242 5.87201 25.7098 5.62944ZM28.41 7.66081H23.8023L23.0839 8.89945H29.5868C29.2203 8.46284 28.8273 8.04918 28.41 7.66081ZM30.5157 10.1381H22.3531L21.6347 11.3767H31.2713C31.0478 10.9472 30.7954 10.5334 30.5157 10.1381ZM31.8659 12.6154H20.9163L20.1979 13.854H32.3489C32.2116 13.4323 32.0503 13.0187 31.8659 12.6154ZM32.6957 15.0927H19.4671L18.7486 16.3313H32.9187C32.8695 15.9143 32.7951 15.5006 32.6957 15.0927ZM33.0426 17.5699H18.0302L17.733 18.0778C17.6793 18.1672 17.6499 18.2691 17.6477 18.3734C17.6456 18.4777 17.6707 18.5807 17.7206 18.6723L17.7949 18.8086H33.0673C33.0797 18.6847 33.0797 18.5485 33.0797 18.4246C33.0797 18.1397 33.0673 17.8548 33.0426 17.5699Z" fill="#082753"/>
<path d="M9.61927 5.88007C9.39222 5.44984 8.85784 5.28305 8.44101 5.53383C5.14114 7.51919 2.67574 10.6551 1.53233 14.354C0.301964 18.3341 0.703091 22.64 2.64747 26.3244C4.59185 30.0087 7.92021 32.7698 11.9003 34.0002C15.5992 35.1436 19.5793 34.878 23.0806 33.2742C23.5228 33.0716 23.6867 32.5363 23.4596 32.1061L16.5395 18.9931L9.61927 5.88007Z" fill="#082753"/>
</g>
<path d="M64.5205 5.96001V27H59.0374V5.96001H64.5205ZM51.0039 5.96001V27H45.5208V5.96001H51.0039ZM61.9702 14.2804V18.5202H48.1986V14.2804H61.9702ZM76.292 10.7418C77.9709 10.7418 79.4374 11.0712 80.6913 11.7301C81.9664 12.3676 82.9547 13.3134 83.656 14.5673C84.3786 15.7999 84.7399 17.2876 84.7399 19.0303C84.7399 20.773 84.3786 22.2713 83.656 23.5252C82.9547 24.7579 81.9664 25.7036 80.6913 26.3624C79.4374 27 77.9709 27.3188 76.292 27.3188C74.6555 27.3188 73.1997 27 71.9246 26.3624C70.6494 25.7036 69.6506 24.7579 68.928 23.5252C68.2267 22.2713 67.876 20.773 67.876 19.0303C67.876 17.2876 68.2267 15.7999 68.928 14.5673C69.6506 13.3134 70.6494 12.3676 71.9246 11.7301C73.1997 11.0712 74.6555 10.7418 76.292 10.7418ZM76.292 14.5992C75.6757 14.5992 75.1444 14.7479 74.6981 15.0455C74.2517 15.343 73.9117 15.8212 73.6779 16.48C73.4442 17.1388 73.3273 17.9889 73.3273 19.0303C73.3273 20.0717 73.4442 20.9218 73.6779 21.5806C73.9117 22.2182 74.2517 22.6964 74.6981 23.0152C75.1444 23.3127 75.6757 23.4615 76.292 23.4615C76.9296 23.4615 77.4715 23.3127 77.9178 23.0152C78.3641 22.6964 78.7042 22.2182 78.9379 21.5806C79.1717 20.9218 79.2886 20.0717 79.2886 19.0303C79.2886 17.9889 79.1717 17.1388 78.9379 16.48C78.7042 15.8212 78.3641 15.343 77.9178 15.0455C77.4715 14.7479 76.9296 14.5992 76.292 14.5992ZM94.4831 27.3188C92.8891 27.3188 91.4015 27.0638 90.02 26.5537C88.6599 26.0224 87.5335 25.2679 86.6409 24.2903L89.1912 21.2937C89.7225 21.9738 90.4238 22.5476 91.2952 23.0152C92.1878 23.4615 93.176 23.6846 94.2599 23.6846C94.9187 23.6846 95.4607 23.589 95.8857 23.3977C96.3108 23.2064 96.5233 22.9089 96.5233 22.5051C96.5233 22.2076 96.417 21.9738 96.2045 21.8038C95.992 21.6125 95.5669 21.4531 94.9294 21.3256L92.6979 20.8793C90.7001 20.4755 89.2762 19.8804 88.4261 19.0941C87.5973 18.2865 87.1828 17.2345 87.1828 15.9381C87.1828 15.0667 87.4485 14.2379 87.9798 13.4515C88.5111 12.6439 89.3293 11.9957 90.4345 11.5069C91.5396 10.9969 92.9529 10.7418 94.6743 10.7418C96.2895 10.7418 97.7134 10.9756 98.9461 11.4432C100.179 11.9107 101.156 12.5908 101.879 13.4834L99.2968 16.4162C98.7867 15.7787 98.1279 15.2792 97.3203 14.9179C96.5127 14.5567 95.7051 14.376 94.8975 14.376C94.3874 14.376 93.9518 14.4291 93.5905 14.5354C93.2504 14.6204 92.9954 14.7479 92.8254 14.9179C92.6553 15.088 92.5703 15.3005 92.5703 15.5555C92.5703 15.8318 92.6979 16.0762 92.9529 16.2887C93.2292 16.48 93.7286 16.65 94.4512 16.7988L97.3522 17.3726C98.9886 17.6701 100.168 18.2121 100.891 18.9984C101.613 19.7848 101.975 20.7305 101.975 21.8356C101.975 22.877 101.698 23.8121 101.146 24.641C100.593 25.4698 99.7643 26.1286 98.6592 26.6175C97.5541 27.085 96.162 27.3188 94.4831 27.3188ZM104.786 33.6945V11.0606H109.664L109.951 16.8307L109.313 16.1612C109.462 15.0986 109.791 14.1635 110.301 13.3559C110.811 12.5483 111.47 11.9107 112.278 11.4432C113.085 10.9756 114.01 10.7418 115.051 10.7418C116.369 10.7418 117.517 11.0712 118.494 11.7301C119.472 12.3676 120.226 13.3028 120.758 14.5354C121.31 15.7468 121.587 17.2238 121.587 18.9665C121.587 20.7093 121.31 22.2076 120.758 23.4615C120.205 24.7154 119.429 25.6717 118.431 26.3305C117.453 26.9894 116.305 27.3188 114.988 27.3188C113.542 27.3188 112.374 26.8937 111.481 26.0436C110.588 25.1723 109.993 24.0778 109.696 22.7601L110.206 21.995V33.6945H104.786ZM113.139 23.3339C114.074 23.3339 114.807 22.9939 115.338 22.3138C115.87 21.6125 116.135 20.518 116.135 19.0303C116.135 17.5426 115.87 16.4588 115.338 15.7787C114.828 15.0773 114.106 14.7267 113.171 14.7267C112.575 14.7267 112.055 14.8967 111.608 15.2367C111.162 15.5555 110.811 16.0337 110.556 16.6713C110.323 17.3089 110.206 18.0952 110.206 19.0303C110.206 19.9229 110.312 20.6986 110.525 21.3575C110.758 21.995 111.098 22.4838 111.545 22.8239C111.991 23.1639 112.522 23.3339 113.139 23.3339ZM127.483 9.21164C126.377 9.21164 125.57 9.00974 125.06 8.60595C124.571 8.1809 124.327 7.52207 124.327 6.62946C124.327 5.7156 124.571 5.05678 125.06 4.65298C125.57 4.22793 126.377 4.0154 127.483 4.0154C128.566 4.0154 129.363 4.22793 129.873 4.65298C130.384 5.05678 130.639 5.7156 130.639 6.62946C130.639 7.52207 130.384 8.1809 129.873 8.60595C129.363 9.00974 128.566 9.21164 127.483 9.21164ZM130.192 11.0606V27H124.773V11.0606H130.192ZM140.713 5.99189V21.3256C140.713 22.0907 140.893 22.6432 141.255 22.9833C141.637 23.3021 142.158 23.4615 142.817 23.4615C143.327 23.4615 143.763 23.4083 144.124 23.3021C144.506 23.1745 144.846 22.9939 145.144 22.7601L145.718 26.1074C145.186 26.4899 144.517 26.7875 143.709 27C142.902 27.2125 142.073 27.3188 141.223 27.3188C140.011 27.3188 138.959 27.1488 138.067 26.8087C137.195 26.4687 136.515 25.9267 136.027 25.1829C135.559 24.4391 135.315 23.4508 135.293 22.2182V7.49019L140.713 5.99189ZM145.463 11.0606V14.9179H132.552V11.0606H145.463ZM157.14 16.8944C157.14 16.1506 156.928 15.5661 156.503 15.1411C156.099 14.6948 155.546 14.4716 154.845 14.4716C154.144 14.4716 153.538 14.6523 153.028 15.0136C152.539 15.3536 152.199 15.9699 152.008 16.8625L147.417 15.7787C147.715 14.2485 148.501 13.0265 149.776 12.1126C151.051 11.1988 152.847 10.7418 155.164 10.7418C156.715 10.7418 158.033 10.9756 159.117 11.4432C160.222 11.8895 161.061 12.5695 161.635 13.4834C162.23 14.376 162.528 15.4811 162.528 16.7988V22.6326C162.528 23.4615 162.9 23.8759 163.644 23.8759C164.026 23.8759 164.334 23.8334 164.568 23.7484L164.249 26.8406C163.612 27.1381 162.836 27.2869 161.922 27.2869C161.093 27.2869 160.36 27.1594 159.722 26.9044C159.085 26.6281 158.585 26.2243 158.224 25.693C157.863 25.1404 157.682 24.4497 157.682 23.6208V23.4296L158.288 23.2064C158.288 24.1203 158.012 24.8854 157.459 25.5017C156.928 26.118 156.226 26.5749 155.355 26.8725C154.505 27.17 153.612 27.3188 152.677 27.3188C151.593 27.3188 150.648 27.1488 149.84 26.8087C149.032 26.4687 148.406 25.9799 147.959 25.3423C147.534 24.6835 147.322 23.8759 147.322 22.9195C147.322 21.7719 147.662 20.8261 148.342 20.0823C149.043 19.3172 150.138 18.7859 151.625 18.4884L157.65 17.2451L157.618 20.1142L154.558 20.7518C153.921 20.8793 153.442 21.0705 153.124 21.3256C152.826 21.5594 152.677 21.9206 152.677 22.4095C152.677 22.877 152.847 23.2277 153.187 23.4615C153.527 23.6952 153.931 23.8121 154.399 23.8121C154.76 23.8121 155.1 23.759 155.419 23.6527C155.759 23.5465 156.056 23.3871 156.311 23.1745C156.566 22.9408 156.768 22.6539 156.917 22.3138C157.066 21.9738 157.14 21.57 157.14 21.1024V16.8944ZM172.063 4.30231V21.5806C172.063 22.2819 172.18 22.7814 172.413 23.0789C172.647 23.3764 173.04 23.5252 173.593 23.5252C173.912 23.5252 174.177 23.504 174.39 23.4615C174.602 23.419 174.858 23.3552 175.155 23.2702L174.804 26.5218C174.422 26.7556 173.922 26.9469 173.306 27.0956C172.69 27.2444 172.084 27.3188 171.489 27.3188C169.789 27.3188 168.556 26.9256 167.791 26.1393C167.026 25.3529 166.643 24.0672 166.643 22.2819V4.30231H172.063Z" fill="#082753"/>
<defs>
<clipPath id="clip0_25_1799">
<rect width="32.745" height="34.8351" fill="white" transform="translate(0.552734 0.153778)"/>
</clipPath>
</defs>
</svg>
