<svg width="1482" height="1482" viewBox="0 0 1482 1482" fill="none" xmlns="http://www.w3.org/2000/svg">
<path d="M1424.35 553.349C1419.16 489.03 1418.6 432.062 1392.46 371.152C1371.47 322.246 1348 272.747 1316.13 229.917C1218.32 99.1754 1065.41 40.9032 906.095 34.9456C644.907 25.2236 390.655 192.038 303.336 439.769C289.227 479.753 266.019 513.483 239.788 545.376C237.031 543.716 235.49 539.27 235.49 531.593C235.49 463.244 158.218 539.685 146.125 558.269C-10.5222 799.065 23.2081 1195.2 284.248 1349.24C391.426 1412.49 510.223 1442.88 633.525 1452.75C745.654 1461.64 867.118 1444.8 951.711 1364.18C1024.98 1294.38 1049.97 1190.73 1111.2 1114.02C1100.26 1135.94 1094.42 1160.06 1094.13 1184.56C1094.34 1225.61 1197.87 1209.13 1303.77 1027.94C1403.13 857.959 1436.18 700.423 1424.35 553.349Z" fill="#00A962" fill-opacity="0.7"/>
<path opacity="0.7" d="M1424.35 553.349C1419.16 489.03 1418.6 432.062 1392.46 371.152C1371.47 322.246 1348 272.747 1316.13 229.917C1218.32 99.1754 1065.41 40.9032 906.095 34.9456C644.907 25.2236 390.655 192.038 303.336 439.769C289.227 479.753 266.019 513.483 239.788 545.376C237.031 543.716 235.49 539.27 235.49 531.593C235.49 463.244 158.218 539.685 146.125 558.269C-10.5222 799.065 23.2081 1195.2 284.248 1349.24C391.426 1412.49 510.223 1442.88 633.525 1452.75C745.654 1461.64 867.118 1444.8 951.711 1364.18C1024.98 1294.38 1049.97 1190.73 1111.2 1114.02C1100.26 1135.94 1094.42 1160.06 1094.13 1184.56C1094.34 1225.61 1197.87 1209.13 1303.77 1027.94C1403.13 857.959 1436.18 700.423 1424.35 553.349Z" fill="white"/>
<path d="M1329.15 1126.32C1329.35 1126.32 1331.46 1110.97 1331.46 1109.99C1331.7 1098.52 1325.53 1076.26 1313.26 1072.08C1311.23 1071.44 1309.08 1071.23 1306.96 1071.48C1304.85 1071.72 1302.81 1072.41 1300.97 1073.5C1299.14 1074.59 1297.56 1076.05 1296.33 1077.79C1295.1 1079.54 1294.26 1081.52 1293.85 1083.61C1291.77 1092.5 1296.81 1102.34 1302.35 1108.92C1308.78 1116.69 1329.12 1126.32 1329.15 1126.32Z" fill="#263238"/>
<path d="M1102.34 1148.31C1111.94 1151.28 1134.26 1148.08 1134.26 1148.08C1134.26 1148.08 1127.74 1134 1127.21 1133.26C1121.07 1123.56 1103.5 1108.48 1091.11 1111.68C1089.06 1112.27 1087.16 1113.28 1085.53 1114.66C1083.9 1116.03 1082.58 1117.73 1081.65 1119.65C1080.72 1121.57 1080.21 1123.66 1080.14 1125.79C1080.08 1127.92 1080.46 1130.04 1081.27 1132.01C1084.41 1140.43 1094.13 1145.85 1102.34 1148.31Z" fill="#263238"/>
<path d="M1217.88 1321.35C1220.01 1325.32 1222.18 1329.32 1224.07 1333.21C1225.32 1335.93 1226.68 1338.48 1227.78 1341.3L1231.16 1349.48C1233.11 1354.79 1235.16 1360.24 1236.94 1365.43C1238.18 1369.04 1239.34 1372.51 1240.49 1376.01C1238.18 1372.18 1233.47 1364.83 1233.02 1364.15C1225.82 1355.26 1206.67 1342.25 1194.7 1346.87C1192.73 1347.69 1190.96 1348.91 1189.5 1350.46C1188.04 1352.01 1186.92 1353.85 1186.21 1355.86C1185.51 1357.87 1185.23 1360.01 1185.41 1362.13C1185.59 1364.25 1186.21 1366.32 1187.23 1368.18C1191.32 1376.27 1201.64 1380.54 1210.05 1382.08C1219.33 1383.74 1238.86 1378.88 1241.29 1378.26C1243.16 1384.04 1244.97 1389.67 1246.57 1395.04C1249.53 1404.52 1251.85 1413.24 1253.89 1420.94H1262.4C1260.06 1412.67 1257.21 1403.16 1253.8 1392.75C1251.9 1386.83 1249.77 1380.63 1247.52 1374.26C1253.2 1371.16 1258.69 1367.74 1263.97 1364C1271.32 1370.29 1289.01 1376.54 1291.3 1377.34C1289.7 1383.27 1288.07 1388.9 1286.46 1394.24C1283.5 1404.17 1280.54 1413.15 1277.9 1420.91H1286.52C1288.81 1413.56 1291.27 1405.38 1293.76 1396.31C1295.42 1390.38 1297.08 1383.98 1298.71 1377.4C1301.17 1377.64 1321.26 1379.27 1330.15 1376.13C1338.22 1373.16 1347.7 1367.23 1350.43 1358.76C1351.14 1356.75 1351.43 1354.61 1351.26 1352.49C1351.1 1350.36 1350.49 1348.29 1349.47 1346.42C1348.45 1344.54 1347.05 1342.91 1345.35 1341.61C1343.66 1340.32 1341.71 1339.39 1339.64 1338.9C1327.07 1336.29 1310.27 1352.18 1304.6 1362.14C1304.28 1362.73 1301.34 1369.52 1299.6 1373.81C1300.25 1371.15 1300.9 1368.54 1301.55 1365.75C1302.86 1360.27 1303.98 1354.76 1305.23 1348.83L1306.74 1340.11C1307.33 1337.15 1307.57 1334.19 1307.98 1331.01C1308.78 1323.9 1309.29 1316.7 1309.61 1309.41C1314.42 1310.53 1331.55 1314.3 1339.99 1312.67C1348.44 1311.04 1358.67 1306.74 1362.67 1298.56C1363.67 1296.68 1364.27 1294.61 1364.43 1292.49C1364.58 1290.36 1364.28 1288.23 1363.56 1286.22C1362.84 1284.22 1361.7 1282.39 1360.22 1280.85C1358.75 1279.32 1356.97 1278.11 1354.99 1277.31C1343.14 1272.83 1323.96 1285.99 1316.85 1295.09C1316.4 1295.65 1312.01 1302.68 1309.7 1306.59C1309.85 1302.2 1310.06 1297.7 1310.06 1293.37C1310.06 1280.57 1309.79 1267.58 1309.52 1254.63C1309.52 1250.66 1309.52 1246.72 1309.35 1242.78C1311.07 1243.22 1331.31 1248.11 1340.77 1246.33C1349.18 1244.7 1359.44 1240.4 1363.44 1232.22C1364.45 1230.35 1365.05 1228.28 1365.21 1226.15C1365.37 1224.02 1365.08 1221.89 1364.36 1219.88C1363.64 1217.87 1362.5 1216.04 1361.03 1214.5C1359.55 1212.96 1357.77 1211.75 1355.79 1210.94C1343.76 1206.47 1324.73 1219.66 1317.65 1228.73C1317.08 1229.41 1310.8 1239.52 1309.35 1242.15C1309.35 1233.44 1309.2 1224.75 1309.5 1216.19C1309.89 1204.62 1311.01 1193.09 1312.84 1181.66C1313.64 1181.87 1334.75 1187.08 1344.44 1185.24C1352.86 1183.64 1363.11 1179.32 1367.15 1171.14C1368.15 1169.26 1368.75 1167.19 1368.9 1165.06C1369.05 1162.94 1368.76 1160.8 1368.04 1158.8C1367.31 1156.8 1366.18 1154.97 1364.7 1153.43C1363.22 1151.9 1361.44 1150.69 1359.47 1149.88C1347.43 1145.38 1328.44 1158.57 1321.32 1167.67C1320.85 1168.26 1316.05 1175.97 1313.85 1179.67L1313.17 1179.41C1315.36 1167.97 1318.56 1156.75 1322.74 1145.88C1324.97 1139.95 1327.43 1134.23 1329.95 1128.81C1333.77 1130.17 1351.35 1136.28 1360.27 1135.6C1369.19 1134.92 1379.48 1131.68 1384.37 1124.07C1385.57 1122.31 1386.4 1120.32 1386.79 1118.22C1387.18 1116.12 1387.12 1113.96 1386.62 1111.89C1386.12 1109.81 1385.19 1107.87 1383.88 1106.18C1382.58 1104.49 1380.94 1103.09 1379.06 1102.07C1367.62 1096.29 1347.26 1107.32 1339.22 1115.47C1338.78 1115.92 1334.81 1120.9 1331.99 1124.57C1333.18 1122.14 1334.33 1119.62 1335.49 1117.31C1339.88 1108.65 1344.38 1101.01 1348.5 1094.25C1350.84 1090.43 1353.04 1087.02 1355.14 1083.85C1359.59 1083.25 1377.58 1080.56 1385.02 1075.9C1392.46 1071.25 1400.25 1063.6 1401.08 1054.56C1401.35 1052.45 1401.17 1050.3 1400.55 1048.26C1399.93 1046.22 1398.88 1044.33 1397.49 1042.72C1396.09 1041.12 1394.36 1039.82 1392.43 1038.92C1390.5 1038.03 1388.39 1037.55 1386.26 1037.52C1373.43 1037.67 1360.45 1056.81 1357.04 1067.75C1356.77 1068.7 1353.87 1084.02 1354.07 1083.99H1354.34C1352.27 1086.96 1350.07 1090.25 1347.76 1093.83C1343.52 1100.5 1338.87 1108.09 1334.22 1116.69C1329.19 1125.91 1324.7 1135.41 1320.76 1145.14C1316.31 1156.03 1312.83 1167.29 1310.35 1178.78C1310.35 1178.78 1310.35 1179.05 1310.35 1179.2C1309.97 1175.46 1308.58 1165.03 1308.37 1164.38C1305.58 1153.29 1293.55 1133.46 1280.8 1132.63C1278.68 1132.56 1276.56 1132.93 1274.58 1133.73C1272.61 1134.52 1270.82 1135.73 1269.34 1137.26C1267.86 1138.79 1266.72 1140.62 1266 1142.62C1265.27 1144.62 1264.97 1146.75 1265.12 1148.88C1265.45 1157.95 1273.01 1166.13 1279.94 1171.05C1287.83 1176.59 1308.43 1180.41 1310.06 1180.71C1307.84 1192.46 1306.41 1204.34 1305.79 1216.28C1305.38 1223.24 1305.2 1230.27 1305.08 1237.32C1304.66 1234.09 1304.25 1231.22 1304.13 1230.83C1301.34 1219.72 1289.31 1199.89 1276.59 1199.06C1274.46 1198.98 1272.34 1199.35 1270.36 1200.14C1268.38 1200.94 1266.59 1202.15 1265.1 1203.68C1263.62 1205.22 1262.48 1207.05 1261.75 1209.06C1261.02 1211.06 1260.73 1213.2 1260.89 1215.33C1261.21 1224.37 1268.77 1232.58 1275.71 1237.47C1282.64 1242.36 1300.31 1246.07 1304.93 1246.95C1304.93 1249.65 1304.93 1252.38 1304.93 1255.08C1304.93 1268.03 1304.93 1280.98 1304.63 1293.61C1304.63 1298.08 1304.25 1302.5 1303.98 1306.89C1303.6 1303.92 1303.24 1301.64 1303.15 1301.26C1300.34 1290.14 1288.33 1270.34 1275.59 1269.51C1273.46 1269.43 1271.33 1269.8 1269.36 1270.59C1267.38 1271.39 1265.59 1272.59 1264.11 1274.13C1262.62 1275.66 1261.48 1277.49 1260.75 1279.49C1260.02 1281.49 1259.73 1283.63 1259.88 1285.75C1260.2 1294.82 1267.79 1303 1274.7 1307.92C1281.6 1312.84 1297.58 1316.16 1303.09 1317.23C1302.68 1321.74 1302.29 1326.12 1301.7 1330.6C1301.23 1333.56 1300.96 1336.53 1300.34 1339.49C1299.71 1342.45 1299.18 1345.42 1298.62 1348.2C1297.31 1353.69 1296.04 1359.35 1294.65 1364.68C1293.7 1368.39 1292.75 1371.92 1291.68 1375.44C1291.86 1371 1292.01 1362.28 1291.95 1361.54C1290.6 1351.56 1286.72 1342.08 1280.69 1334.01C1280.59 1332.88 1280.39 1331.77 1280.09 1330.69C1279.58 1328.62 1278.63 1326.69 1277.32 1325.01C1276.01 1323.33 1274.36 1321.94 1272.48 1320.94C1270.6 1319.94 1268.53 1319.35 1266.4 1319.2C1264.28 1319.05 1262.15 1319.35 1260.14 1320.08C1248.29 1324.82 1242.98 1347.38 1243.72 1358.82C1243.72 1359.47 1245.09 1366.73 1246.01 1371.32C1245.06 1368.72 1244.17 1366.17 1243.04 1363.5C1241.12 1358.19 1239.04 1352.98 1236.79 1347.35L1233.26 1339.22C1232.13 1336.5 1230.59 1333.74 1229.26 1330.98C1226.03 1324.61 1222.44 1318.3 1218.71 1312.04C1223.33 1310.33 1239.69 1304.01 1245.83 1298.02C1251.96 1292.04 1258.1 1282.73 1256.97 1273.75C1256.78 1271.63 1256.15 1269.57 1255.11 1267.71C1254.06 1265.84 1252.64 1264.22 1250.94 1262.95C1249.23 1261.67 1247.27 1260.77 1245.19 1260.3C1243.11 1259.84 1240.95 1259.81 1238.86 1260.23C1226.36 1263.2 1217.76 1284.63 1216.78 1296.04C1216.78 1296.75 1216.93 1304.93 1217.14 1309.55C1214.85 1305.82 1212.6 1302.06 1210.17 1298.35C1203.15 1287.62 1195.74 1276.98 1188.36 1266.31C1186.1 1263.05 1183.88 1259.79 1181.66 1256.5C1183.32 1255.91 1202.91 1248.85 1209.82 1242.12C1215.92 1236.2 1222.09 1226.83 1220.93 1217.85C1220.74 1215.72 1220.1 1213.67 1219.06 1211.8C1218.02 1209.94 1216.6 1208.32 1214.89 1207.05C1213.18 1205.77 1211.23 1204.87 1209.15 1204.4C1207.07 1203.94 1204.91 1203.91 1202.82 1204.33C1190.31 1207.3 1181.72 1228.73 1180.74 1240.14C1180.74 1241 1181.01 1252.88 1181.24 1255.91C1176.35 1248.7 1171.52 1241.47 1167.08 1234.15C1160.98 1224.31 1155.55 1214.08 1150.8 1203.53C1151.57 1203.24 1172.05 1195.94 1179.14 1189.07C1185.24 1183.14 1191.41 1173.77 1190.25 1164.79C1190.06 1162.67 1189.43 1160.61 1188.39 1158.75C1187.35 1156.89 1185.92 1155.27 1184.21 1154C1182.51 1152.73 1180.55 1151.83 1178.47 1151.36C1176.39 1150.9 1174.23 1150.88 1172.14 1151.31C1159.64 1154.27 1151.04 1175.67 1150.06 1187.08C1150.06 1187.82 1150.27 1196.89 1150.48 1201.22L1149.77 1201.37C1145.38 1190.52 1141.98 1179.28 1139.63 1167.82C1138.15 1161.56 1137.11 1155.52 1136.22 1149.62C1140.16 1148.64 1158.21 1144.04 1165.24 1138.53C1172.26 1133.02 1179.11 1124.69 1178.99 1115.62C1179.03 1113.49 1178.62 1111.38 1177.78 1109.41C1176.95 1107.45 1175.71 1105.69 1174.15 1104.24C1172.59 1102.79 1170.74 1101.68 1168.73 1100.99C1166.71 1100.3 1164.57 1100.05 1162.45 1100.24C1149.71 1101.72 1138.74 1122.14 1136.58 1133.37C1136.58 1133.97 1135.92 1140.34 1135.6 1144.96C1135.24 1142.3 1134.83 1139.54 1134.53 1136.96C1133.4 1127.33 1132.96 1118.44 1132.63 1110.55C1132.49 1106.08 1132.43 1102.02 1132.43 1098.22C1135.8 1095.26 1149.32 1083.08 1152.97 1075.1C1156.61 1067.13 1158.89 1056.43 1154.6 1048.43C1153.64 1046.53 1152.29 1044.85 1150.65 1043.51C1149 1042.16 1147.09 1041.18 1145.04 1040.62C1142.99 1040.06 1140.84 1039.94 1138.74 1040.26C1136.64 1040.59 1134.63 1041.35 1132.84 1042.5C1122.2 1049.67 1121.93 1072.82 1125.13 1083.82C1125.43 1084.76 1131.48 1099.14 1131.66 1098.99L1131.86 1098.81C1131.86 1102.46 1131.86 1106.37 1131.86 1110.67C1131.86 1118.55 1132.25 1127.51 1133.17 1137.2C1134.06 1147.66 1135.56 1158.06 1137.64 1168.35C1139.93 1179.88 1143.23 1191.19 1147.51 1202.14L1147.69 1202.52C1145.32 1199.56 1138.38 1191.71 1137.79 1191.14C1129.31 1183.44 1108.42 1173.36 1097.3 1179.88C1095.48 1180.99 1093.92 1182.47 1092.71 1184.22C1091.5 1185.97 1090.67 1187.96 1090.28 1190.05C1089.88 1192.15 1089.94 1194.3 1090.43 1196.37C1090.93 1198.45 1091.86 1200.39 1093.15 1202.08C1098.43 1209.46 1109.25 1212.13 1117.81 1212.34C1127.48 1212.6 1146.74 1204.42 1148.28 1203.77C1152.92 1214.81 1158.28 1225.52 1164.35 1235.84C1167.85 1241.77 1171.58 1247.84 1175.37 1253.77C1173.24 1251.31 1171.31 1249.15 1171.02 1248.85C1162.54 1241.15 1141.64 1231.07 1130.5 1237.59C1128.69 1238.69 1127.13 1240.16 1125.92 1241.91C1124.71 1243.65 1123.88 1245.63 1123.49 1247.71C1123.1 1249.8 1123.14 1251.94 1123.63 1254.01C1124.12 1256.07 1125.04 1258.01 1126.32 1259.7C1131.57 1267.08 1142.41 1269.75 1150.98 1269.96C1159.55 1270.16 1176.2 1263.58 1180.62 1261.75L1185.01 1268.59C1192.15 1279.44 1199.32 1290.2 1206.05 1300.96C1208.42 1304.78 1210.62 1308.61 1212.84 1312.43C1210.91 1310.24 1209.31 1308.43 1209.02 1308.16C1200.57 1300.45 1179.67 1290.53 1168.53 1296.9C1166.71 1298.01 1165.14 1299.48 1163.93 1301.24C1162.72 1302.99 1161.89 1304.98 1161.5 1307.07C1161.11 1309.17 1161.16 1311.32 1161.66 1313.39C1162.15 1315.46 1163.08 1317.41 1164.38 1319.1C1169.65 1326.48 1180.5 1329.15 1189.07 1329.35C1197.63 1329.56 1212.69 1323.49 1217.88 1321.35Z" fill="#263238"/>
<path opacity="0.3" d="M1102.34 1148.31C1111.94 1151.28 1134.26 1148.08 1134.26 1148.08C1134.26 1148.08 1127.74 1134 1127.21 1133.26C1121.07 1123.56 1103.5 1108.48 1091.11 1111.68C1089.06 1112.27 1087.16 1113.28 1085.53 1114.66C1083.9 1116.03 1082.58 1117.73 1081.65 1119.65C1080.72 1121.57 1080.21 1123.66 1080.14 1125.79C1080.08 1127.92 1080.46 1130.04 1081.27 1132.01C1084.41 1140.43 1094.13 1145.85 1102.34 1148.31Z" fill="#263238"/>
<path opacity="0.3" d="M1329.15 1126.32C1329.35 1126.32 1331.46 1110.97 1331.46 1109.99C1331.7 1098.52 1325.53 1076.26 1313.26 1072.08C1311.23 1071.44 1309.08 1071.23 1306.96 1071.48C1304.85 1071.72 1302.81 1072.41 1300.97 1073.5C1299.14 1074.59 1297.56 1076.05 1296.33 1077.79C1295.1 1079.54 1294.26 1081.52 1293.85 1083.61C1291.77 1092.5 1296.81 1102.34 1302.35 1108.92C1308.78 1116.69 1329.12 1126.32 1329.15 1126.32Z" fill="#263238"/>
<path opacity="0.3" d="M1217.88 1321.35C1220.01 1325.32 1222.18 1329.32 1224.07 1333.21C1225.32 1335.93 1226.68 1338.48 1227.78 1341.3L1231.16 1349.48C1233.11 1354.79 1235.16 1360.24 1236.94 1365.43C1238.18 1369.04 1239.34 1372.51 1240.49 1376.01C1238.18 1372.18 1233.47 1364.83 1233.02 1364.15C1225.82 1355.26 1206.67 1342.25 1194.7 1346.87C1192.73 1347.69 1190.96 1348.91 1189.5 1350.46C1188.04 1352.01 1186.92 1353.85 1186.21 1355.86C1185.51 1357.87 1185.23 1360.01 1185.41 1362.13C1185.59 1364.25 1186.21 1366.32 1187.23 1368.18C1191.32 1376.27 1201.64 1380.54 1210.05 1382.08C1219.33 1383.74 1238.86 1378.88 1241.29 1378.26C1243.16 1384.04 1244.97 1389.67 1246.57 1395.04C1249.53 1404.52 1251.85 1413.24 1253.89 1420.94H1262.4C1260.06 1412.67 1257.21 1403.16 1253.8 1392.75C1251.9 1386.83 1249.77 1380.63 1247.52 1374.26C1253.2 1371.16 1258.69 1367.74 1263.97 1364C1271.32 1370.29 1289.01 1376.54 1291.3 1377.34C1289.7 1383.27 1288.07 1388.9 1286.46 1394.24C1283.5 1404.17 1280.54 1413.15 1277.9 1420.91H1286.52C1288.81 1413.56 1291.27 1405.38 1293.76 1396.31C1295.42 1390.38 1297.08 1383.98 1298.71 1377.4C1301.17 1377.64 1321.26 1379.27 1330.15 1376.13C1338.22 1373.16 1347.7 1367.23 1350.43 1358.76C1351.14 1356.75 1351.43 1354.61 1351.26 1352.49C1351.1 1350.36 1350.49 1348.29 1349.47 1346.42C1348.45 1344.54 1347.05 1342.91 1345.35 1341.61C1343.66 1340.32 1341.71 1339.39 1339.64 1338.9C1327.07 1336.29 1310.27 1352.18 1304.6 1362.14C1304.28 1362.73 1301.34 1369.52 1299.6 1373.81C1300.25 1371.15 1300.9 1368.54 1301.55 1365.75C1302.86 1360.27 1303.98 1354.76 1305.23 1348.83L1306.74 1340.11C1307.33 1337.15 1307.57 1334.19 1307.98 1331.01C1308.78 1323.9 1309.29 1316.7 1309.61 1309.41C1314.42 1310.53 1331.55 1314.3 1339.99 1312.67C1348.44 1311.04 1358.67 1306.74 1362.67 1298.56C1363.67 1296.68 1364.27 1294.61 1364.43 1292.49C1364.58 1290.36 1364.28 1288.23 1363.56 1286.22C1362.84 1284.22 1361.7 1282.39 1360.22 1280.85C1358.75 1279.32 1356.97 1278.11 1354.99 1277.31C1343.14 1272.83 1323.96 1285.99 1316.85 1295.09C1316.4 1295.65 1312.01 1302.68 1309.7 1306.59C1309.85 1302.2 1310.06 1297.7 1310.06 1293.37C1310.06 1280.57 1309.79 1267.58 1309.52 1254.63C1309.52 1250.66 1309.52 1246.72 1309.35 1242.78C1311.07 1243.22 1331.31 1248.11 1340.77 1246.33C1349.18 1244.7 1359.44 1240.4 1363.44 1232.22C1364.45 1230.35 1365.05 1228.28 1365.21 1226.15C1365.37 1224.02 1365.08 1221.89 1364.36 1219.88C1363.64 1217.87 1362.5 1216.04 1361.03 1214.5C1359.55 1212.96 1357.77 1211.75 1355.79 1210.94C1343.76 1206.47 1324.73 1219.66 1317.65 1228.73C1317.08 1229.41 1310.8 1239.52 1309.35 1242.15C1309.35 1233.44 1309.2 1224.75 1309.5 1216.19C1309.89 1204.62 1311.01 1193.09 1312.84 1181.66C1313.64 1181.87 1334.75 1187.08 1344.44 1185.24C1352.86 1183.64 1363.11 1179.32 1367.15 1171.14C1368.15 1169.26 1368.75 1167.19 1368.9 1165.06C1369.05 1162.94 1368.76 1160.8 1368.04 1158.8C1367.31 1156.8 1366.18 1154.97 1364.7 1153.43C1363.22 1151.9 1361.44 1150.69 1359.47 1149.88C1347.43 1145.38 1328.44 1158.57 1321.32 1167.67C1320.85 1168.26 1316.05 1175.97 1313.85 1179.67L1313.17 1179.41C1315.36 1167.97 1318.56 1156.75 1322.74 1145.88C1324.97 1139.95 1327.43 1134.23 1329.95 1128.81C1333.77 1130.17 1351.35 1136.28 1360.27 1135.6C1369.19 1134.92 1379.48 1131.68 1384.37 1124.07C1385.57 1122.31 1386.4 1120.32 1386.79 1118.22C1387.18 1116.12 1387.12 1113.96 1386.62 1111.89C1386.12 1109.81 1385.19 1107.87 1383.88 1106.18C1382.58 1104.49 1380.94 1103.09 1379.06 1102.07C1367.62 1096.29 1347.26 1107.32 1339.22 1115.47C1338.78 1115.92 1334.81 1120.9 1331.99 1124.57C1333.18 1122.14 1334.33 1119.62 1335.49 1117.31C1339.88 1108.65 1344.38 1101.01 1348.5 1094.25C1350.84 1090.43 1353.04 1087.02 1355.14 1083.85C1359.59 1083.25 1377.58 1080.56 1385.02 1075.9C1392.46 1071.25 1400.25 1063.6 1401.08 1054.56C1401.35 1052.45 1401.17 1050.3 1400.55 1048.26C1399.93 1046.22 1398.88 1044.33 1397.49 1042.72C1396.09 1041.12 1394.36 1039.82 1392.43 1038.92C1390.5 1038.03 1388.39 1037.55 1386.26 1037.52C1373.43 1037.67 1360.45 1056.81 1357.04 1067.75C1356.77 1068.7 1353.87 1084.02 1354.07 1083.99H1354.34C1352.27 1086.96 1350.07 1090.25 1347.76 1093.83C1343.52 1100.5 1338.87 1108.09 1334.22 1116.69C1329.19 1125.91 1324.7 1135.41 1320.76 1145.14C1316.31 1156.03 1312.83 1167.29 1310.35 1178.78C1310.35 1178.78 1310.35 1179.05 1310.35 1179.2C1309.97 1175.46 1308.58 1165.03 1308.37 1164.38C1305.58 1153.29 1293.55 1133.46 1280.8 1132.63C1278.68 1132.56 1276.56 1132.93 1274.58 1133.73C1272.61 1134.52 1270.82 1135.73 1269.34 1137.26C1267.86 1138.79 1266.72 1140.62 1266 1142.62C1265.27 1144.62 1264.97 1146.75 1265.12 1148.88C1265.45 1157.95 1273.01 1166.13 1279.94 1171.05C1287.83 1176.59 1308.43 1180.41 1310.06 1180.71C1307.84 1192.46 1306.41 1204.34 1305.79 1216.28C1305.38 1223.24 1305.2 1230.27 1305.08 1237.32C1304.66 1234.09 1304.25 1231.22 1304.13 1230.83C1301.34 1219.72 1289.31 1199.89 1276.59 1199.06C1274.46 1198.98 1272.34 1199.35 1270.36 1200.14C1268.38 1200.94 1266.59 1202.15 1265.1 1203.68C1263.62 1205.22 1262.48 1207.05 1261.75 1209.06C1261.02 1211.06 1260.73 1213.2 1260.89 1215.33C1261.21 1224.37 1268.77 1232.58 1275.71 1237.47C1282.64 1242.36 1300.31 1246.07 1304.93 1246.95C1304.93 1249.65 1304.93 1252.38 1304.93 1255.08C1304.93 1268.03 1304.93 1280.98 1304.63 1293.61C1304.63 1298.08 1304.25 1302.5 1303.98 1306.89C1303.6 1303.92 1303.24 1301.64 1303.15 1301.26C1300.34 1290.14 1288.33 1270.34 1275.59 1269.51C1273.46 1269.43 1271.33 1269.8 1269.36 1270.59C1267.38 1271.39 1265.59 1272.59 1264.11 1274.13C1262.62 1275.66 1261.48 1277.49 1260.75 1279.49C1260.02 1281.49 1259.73 1283.63 1259.88 1285.75C1260.2 1294.82 1267.79 1303 1274.7 1307.92C1281.6 1312.84 1297.58 1316.16 1303.09 1317.23C1302.68 1321.74 1302.29 1326.12 1301.7 1330.6C1301.23 1333.56 1300.96 1336.53 1300.34 1339.49C1299.71 1342.45 1299.18 1345.42 1298.62 1348.2C1297.31 1353.69 1296.04 1359.35 1294.65 1364.68C1293.7 1368.39 1292.75 1371.92 1291.68 1375.44C1291.86 1371 1292.01 1362.28 1291.95 1361.54C1290.6 1351.56 1286.72 1342.08 1280.69 1334.01C1280.59 1332.88 1280.39 1331.77 1280.09 1330.69C1279.58 1328.62 1278.63 1326.69 1277.32 1325.01C1276.01 1323.33 1274.36 1321.94 1272.48 1320.94C1270.6 1319.94 1268.53 1319.35 1266.4 1319.2C1264.28 1319.05 1262.15 1319.35 1260.14 1320.08C1248.29 1324.82 1242.98 1347.38 1243.72 1358.82C1243.72 1359.47 1245.09 1366.73 1246.01 1371.32C1245.06 1368.72 1244.17 1366.17 1243.04 1363.5C1241.12 1358.19 1239.04 1352.98 1236.79 1347.35L1233.26 1339.22C1232.13 1336.5 1230.59 1333.74 1229.26 1330.98C1226.03 1324.61 1222.44 1318.3 1218.71 1312.04C1223.33 1310.33 1239.69 1304.01 1245.83 1298.02C1251.96 1292.04 1258.1 1282.73 1256.97 1273.75C1256.78 1271.63 1256.15 1269.57 1255.11 1267.71C1254.06 1265.84 1252.64 1264.22 1250.94 1262.95C1249.23 1261.67 1247.27 1260.77 1245.19 1260.3C1243.11 1259.84 1240.95 1259.81 1238.86 1260.23C1226.36 1263.2 1217.76 1284.63 1216.78 1296.04C1216.78 1296.75 1216.93 1304.93 1217.14 1309.55C1214.85 1305.82 1212.6 1302.06 1210.17 1298.35C1203.15 1287.62 1195.74 1276.98 1188.36 1266.31C1186.1 1263.05 1183.88 1259.79 1181.66 1256.5C1183.32 1255.91 1202.91 1248.85 1209.82 1242.12C1215.92 1236.2 1222.09 1226.83 1220.93 1217.85C1220.74 1215.72 1220.1 1213.67 1219.06 1211.8C1218.02 1209.94 1216.6 1208.32 1214.89 1207.05C1213.18 1205.77 1211.23 1204.87 1209.15 1204.4C1207.07 1203.94 1204.91 1203.91 1202.82 1204.33C1190.31 1207.3 1181.72 1228.73 1180.74 1240.14C1180.74 1241 1181.01 1252.88 1181.24 1255.91C1176.35 1248.7 1171.52 1241.47 1167.08 1234.15C1160.98 1224.31 1155.55 1214.08 1150.8 1203.53C1151.57 1203.24 1172.05 1195.94 1179.14 1189.07C1185.24 1183.14 1191.41 1173.77 1190.25 1164.79C1190.06 1162.67 1189.43 1160.61 1188.39 1158.75C1187.35 1156.89 1185.92 1155.27 1184.21 1154C1182.51 1152.73 1180.55 1151.83 1178.47 1151.36C1176.39 1150.9 1174.23 1150.88 1172.14 1151.31C1159.64 1154.27 1151.04 1175.67 1150.06 1187.08C1150.06 1187.82 1150.27 1196.89 1150.48 1201.22L1149.77 1201.37C1145.38 1190.52 1141.98 1179.28 1139.63 1167.82C1138.15 1161.56 1137.11 1155.52 1136.22 1149.62C1140.16 1148.64 1158.21 1144.04 1165.24 1138.53C1172.26 1133.02 1179.11 1124.69 1178.99 1115.62C1179.03 1113.49 1178.62 1111.38 1177.78 1109.41C1176.95 1107.45 1175.71 1105.69 1174.15 1104.24C1172.59 1102.79 1170.74 1101.68 1168.73 1100.99C1166.71 1100.3 1164.57 1100.05 1162.45 1100.24C1149.71 1101.72 1138.74 1122.14 1136.58 1133.37C1136.58 1133.97 1135.92 1140.34 1135.6 1144.96C1135.24 1142.3 1134.83 1139.54 1134.53 1136.96C1133.4 1127.33 1132.96 1118.44 1132.63 1110.55C1132.49 1106.08 1132.43 1102.02 1132.43 1098.22C1135.8 1095.26 1149.32 1083.08 1152.97 1075.1C1156.61 1067.13 1158.89 1056.43 1154.6 1048.43C1153.64 1046.53 1152.29 1044.85 1150.65 1043.51C1149 1042.16 1147.09 1041.18 1145.04 1040.62C1142.99 1040.06 1140.84 1039.94 1138.74 1040.26C1136.64 1040.59 1134.63 1041.35 1132.84 1042.5C1122.2 1049.67 1121.93 1072.82 1125.13 1083.82C1125.43 1084.76 1131.48 1099.14 1131.66 1098.99L1131.86 1098.81C1131.86 1102.46 1131.86 1106.37 1131.86 1110.67C1131.86 1118.55 1132.25 1127.51 1133.17 1137.2C1134.06 1147.66 1135.56 1158.06 1137.64 1168.35C1139.93 1179.88 1143.23 1191.19 1147.51 1202.14L1147.69 1202.52C1145.32 1199.56 1138.38 1191.71 1137.79 1191.14C1129.31 1183.44 1108.42 1173.36 1097.3 1179.88C1095.48 1180.99 1093.92 1182.47 1092.71 1184.22C1091.5 1185.97 1090.67 1187.96 1090.28 1190.05C1089.88 1192.15 1089.94 1194.3 1090.43 1196.37C1090.93 1198.45 1091.86 1200.39 1093.15 1202.08C1098.43 1209.46 1109.25 1212.13 1117.81 1212.34C1127.48 1212.6 1146.74 1204.42 1148.28 1203.77C1152.92 1214.81 1158.28 1225.52 1164.35 1235.84C1167.85 1241.77 1171.58 1247.84 1175.37 1253.77C1173.24 1251.31 1171.31 1249.15 1171.02 1248.85C1162.54 1241.15 1141.64 1231.07 1130.5 1237.59C1128.69 1238.69 1127.13 1240.16 1125.92 1241.91C1124.71 1243.65 1123.88 1245.63 1123.49 1247.71C1123.1 1249.8 1123.14 1251.94 1123.63 1254.01C1124.12 1256.07 1125.04 1258.01 1126.32 1259.7C1131.57 1267.08 1142.41 1269.75 1150.98 1269.96C1159.55 1270.16 1176.2 1263.58 1180.62 1261.75L1185.01 1268.59C1192.15 1279.44 1199.32 1290.2 1206.05 1300.96C1208.42 1304.78 1210.62 1308.61 1212.84 1312.43C1210.91 1310.24 1209.31 1308.43 1209.02 1308.16C1200.57 1300.45 1179.67 1290.53 1168.53 1296.9C1166.71 1298.01 1165.14 1299.48 1163.93 1301.24C1162.72 1302.99 1161.89 1304.98 1161.5 1307.07C1161.11 1309.17 1161.16 1311.32 1161.66 1313.39C1162.15 1315.46 1163.08 1317.41 1164.38 1319.1C1169.65 1326.48 1180.5 1329.15 1189.07 1329.35C1197.63 1329.56 1212.69 1323.49 1217.88 1321.35Z" fill="#263238"/>
<path d="M311.22 1246.13C311.22 1246.13 312.584 1237.03 312.613 1236.43C312.613 1229.65 308.997 1216.43 301.795 1213.94C300.588 1213.54 299.31 1213.4 298.046 1213.54C296.783 1213.68 295.564 1214.09 294.472 1214.74C293.379 1215.38 292.438 1216.26 291.713 1217.3C290.987 1218.35 290.493 1219.53 290.265 1220.78C289.049 1226.03 292.073 1231.9 295.333 1235.81C299.157 1240.4 311.22 1246.13 311.22 1246.13Z" fill="#263238"/>
<path d="M176.625 1259.2C182.316 1260.92 195.565 1259.05 195.565 1259.02C195.565 1258.99 191.682 1250.69 191.386 1250.13C187.74 1244.38 177.336 1235.31 169.956 1237.32C168.723 1237.65 167.574 1238.23 166.588 1239.04C165.601 1239.85 164.799 1240.86 164.237 1242C163.675 1243.14 163.365 1244.4 163.329 1245.67C163.293 1246.94 163.531 1248.21 164.028 1249.39C165.984 1254.48 171.912 1257.71 176.625 1259.2Z" fill="#263238"/>
<path d="M245.212 1361.9C246.486 1364.27 247.761 1366.64 248.887 1368.98C249.628 1370.58 250.428 1372.09 251.08 1373.78C251.733 1375.47 252.414 1377.04 253.096 1378.65C254.252 1381.79 255.467 1385.02 256.505 1388.1C257.275 1390.23 257.957 1392.31 258.639 1394.38C257.246 1392.1 254.459 1387.74 254.193 1387.42C249.925 1382.11 238.543 1374.41 231.459 1377.13C230.289 1377.62 229.235 1378.35 228.365 1379.27C227.495 1380.2 226.829 1381.29 226.41 1382.49C225.991 1383.68 225.828 1384.95 225.931 1386.22C226.035 1387.48 226.404 1388.71 227.013 1389.82C229.443 1394.62 235.579 1397.14 240.558 1398.06C246.071 1399.04 257.661 1396.16 259.113 1395.78C260.239 1399.22 261.277 1402.56 262.077 1405.74C263.796 1411.37 265.219 1416.55 266.434 1421.12H271.502C270.08 1416.2 268.538 1410.6 266.404 1404.4C265.278 1400.9 264.003 1397.2 262.64 1393.41C266.024 1391.58 269.291 1389.54 272.421 1387.3C276.778 1391.03 287.241 1394.77 288.664 1395.24C287.686 1398.71 286.737 1402.09 285.7 1405.26C283.951 1411.19 282.202 1416.5 280.632 1421.12H285.73C287.093 1416.76 288.694 1411.9 290.057 1406.54C291.035 1403.01 292.013 1399.22 293.021 1395.3C294.473 1395.3 306.389 1396.4 311.665 1394.53C316.466 1392.84 322.098 1389.35 323.728 1384.22C324.184 1383.02 324.376 1381.74 324.291 1380.46C324.205 1379.18 323.845 1377.94 323.234 1376.81C322.623 1375.69 321.777 1374.71 320.752 1373.94C319.727 1373.17 318.548 1372.63 317.296 1372.36C309.857 1370.79 299.868 1380.25 296.548 1386.14C296.341 1386.5 294.622 1390.53 293.584 1393.08C293.97 1391.48 294.384 1389.94 294.77 1388.28C295.54 1385.05 296.193 1381.76 296.934 1378.23C297.23 1376.54 297.556 1374.79 297.852 1373.07C298.149 1371.35 298.327 1369.49 298.564 1367.65C299.068 1363.44 299.364 1359.17 299.542 1354.84C302.506 1355.5 312.554 1357.81 317.563 1356.77C322.572 1355.73 328.648 1353.24 331.049 1348.41C331.669 1347.3 332.043 1346.07 332.146 1344.8C332.249 1343.53 332.078 1342.26 331.646 1341.06C331.213 1339.86 330.528 1338.77 329.638 1337.86C328.747 1336.95 327.672 1336.24 326.485 1335.79C319.341 1333.12 308.049 1340.94 303.84 1346.28C303.573 1346.6 300.876 1350.78 299.601 1353.1C299.601 1350.49 299.809 1347.91 299.809 1345.27C299.809 1337.65 299.809 1329.95 299.483 1322.27V1315.22C300.49 1315.45 312.524 1318.39 318.126 1317.29C323.106 1316.34 329.212 1313.76 331.583 1308.93C332.203 1307.82 332.579 1306.59 332.684 1305.32C332.789 1304.06 332.62 1302.78 332.191 1301.59C331.761 1300.39 331.079 1299.3 330.192 1298.39C329.305 1297.48 328.233 1296.77 327.048 1296.31C319.905 1293.64 308.612 1301.46 304.403 1306.8C304.077 1307.21 300.342 1313.2 299.483 1314.77C299.483 1309.61 299.483 1304.46 299.483 1299.36C299.698 1292.5 300.361 1285.65 301.468 1278.88C301.943 1278.88 314.48 1282.08 320.231 1280.98C325.21 1280.03 331.316 1277.45 333.687 1272.62C334.308 1271.51 334.683 1270.28 334.788 1269.02C334.893 1267.75 334.725 1266.47 334.295 1265.28C333.865 1264.08 333.184 1262.99 332.297 1262.08C331.409 1261.17 330.337 1260.46 329.152 1260C322.009 1257.33 310.716 1265.15 306.478 1270.49C306.211 1270.84 303.514 1275.41 302.061 1277.6L301.646 1277.45C302.956 1270.66 304.86 1264 307.337 1257.54C308.671 1253.98 310.123 1250.63 311.605 1247.43C313.888 1248.23 324.321 1251.85 329.626 1251.43C334.932 1251.02 341.008 1249.12 343.913 1244.61C344.65 1243.58 345.156 1242.4 345.397 1241.15C345.638 1239.9 345.609 1238.61 345.311 1237.38C345.014 1236.14 344.454 1234.98 343.671 1233.98C342.888 1232.98 341.899 1232.16 340.771 1231.57C333.984 1228.13 321.89 1234.54 317.059 1239.49C316.792 1239.75 314.451 1242.72 312.761 1244.91C313.473 1243.46 314.154 1241.95 314.866 1240.61C317.444 1235.45 320.142 1230.92 322.572 1226.92C323.965 1224.64 325.269 1222.62 326.514 1220.72C329.152 1220.37 339.823 1218.77 344.298 1216.01C348.774 1213.25 353.368 1208.72 353.842 1203.35C354.022 1202.09 353.925 1200.8 353.559 1199.57C353.193 1198.34 352.567 1197.21 351.723 1196.25C350.878 1195.28 349.836 1194.51 348.667 1193.99C347.498 1193.47 346.231 1193.2 344.95 1193.22C337.333 1193.22 329.626 1204.69 327.611 1211.18C327.433 1211.74 325.744 1220.84 325.862 1220.81H326.04C324.795 1222.62 323.491 1224.55 322.128 1226.74C319.608 1230.68 316.792 1235.19 314.095 1240.32C311.096 1245.77 308.424 1251.41 306.092 1257.18C303.447 1263.64 301.384 1270.33 299.927 1277.16C299.927 1277.16 299.927 1277.34 299.927 1277.4C299.72 1275.17 298.89 1269.01 298.771 1268.5C297.111 1261.89 289.879 1250.13 282.41 1249.65C281.14 1249.58 279.871 1249.79 278.687 1250.25C277.504 1250.72 276.433 1251.43 275.548 1252.34C274.663 1253.26 273.985 1254.35 273.558 1255.55C273.131 1256.74 272.966 1258.02 273.073 1259.28C273.281 1264.68 277.756 1269.54 281.965 1272.45C286.648 1275.74 298.86 1278.02 299.749 1278.2C298.446 1285.18 297.604 1292.24 297.23 1299.33C296.993 1303.45 296.874 1307.63 296.815 1311.81C296.548 1309.88 296.311 1308.19 296.252 1307.95C294.592 1301.34 287.36 1289.58 279.891 1289.1C278.621 1289.03 277.351 1289.24 276.168 1289.7C274.984 1290.17 273.914 1290.88 273.029 1291.79C272.144 1292.71 271.465 1293.8 271.038 1295C270.611 1296.19 270.446 1297.47 270.554 1298.74C270.761 1304.13 275.237 1308.99 279.446 1311.9C283.655 1314.8 294.029 1316.99 296.785 1317.53C296.785 1319.13 296.785 1320.73 296.785 1322.33C296.785 1330.04 296.785 1337.71 296.607 1345.27C296.607 1347.91 296.37 1350.55 296.222 1353.15C295.985 1351.44 295.778 1350.01 295.718 1349.81C294.058 1343.2 286.974 1331.43 279.357 1330.95C278.09 1330.89 276.824 1331.1 275.644 1331.57C274.464 1332.03 273.397 1332.74 272.515 1333.66C271.634 1334.57 270.958 1335.66 270.532 1336.86C270.107 1338.05 269.943 1339.32 270.05 1340.59C270.258 1345.98 274.733 1350.84 278.942 1353.75C283.151 1356.65 292.517 1358.64 295.778 1359.29C295.54 1361.96 295.303 1364.63 294.948 1367.2C294.681 1368.98 294.533 1370.67 294.147 1372.42C293.762 1374.17 293.466 1375.89 293.11 1377.61C292.369 1380.84 291.598 1384.22 290.768 1387.39C290.205 1389.58 289.642 1391.66 289.049 1393.76C289.049 1391.12 289.257 1385.97 289.049 1385.52C288.276 1379.58 285.979 1373.95 282.38 1369.16C282.319 1368.5 282.2 1367.84 282.025 1367.2C281.736 1365.97 281.186 1364.8 280.41 1363.8C279.635 1362.79 278.652 1361.96 277.528 1361.36C276.404 1360.77 275.166 1360.42 273.896 1360.34C272.627 1360.27 271.355 1360.46 270.169 1360.92C263.114 1363.74 260.002 1377.1 260.447 1383.89C260.447 1384.31 261.247 1388.6 261.78 1391.3C261.217 1389.76 260.713 1388.34 260.121 1386.68C258.965 1383.54 257.72 1380.42 256.416 1377.1L254.548 1372.33C253.896 1370.7 252.977 1369.07 252.177 1367.41C250.28 1363.65 248.146 1359.91 245.923 1356.18C248.68 1355.17 258.372 1351.44 262.018 1347.88C265.663 1344.32 269.309 1338.78 268.657 1333.44C268.559 1332.18 268.191 1330.95 267.577 1329.83C266.963 1328.72 266.118 1327.75 265.098 1326.99C264.079 1326.24 262.908 1325.71 261.666 1325.44C260.424 1325.17 259.139 1325.17 257.898 1325.44C250.458 1327.16 245.36 1339.91 244.797 1346.69C244.797 1347.11 244.797 1352.03 245.004 1354.73C243.641 1352.5 242.307 1350.25 240.855 1348.06C236.705 1341.68 232.289 1335.37 227.902 1329.06L223.93 1323.13C224.908 1322.77 236.557 1318.59 240.647 1314.59C244.738 1310.59 247.939 1305.52 247.257 1300.19C247.121 1298.94 246.727 1297.74 246.099 1296.65C245.472 1295.56 244.625 1294.62 243.613 1293.88C242.601 1293.14 241.446 1292.61 240.221 1292.34C238.996 1292.07 237.728 1292.06 236.498 1292.3C229.088 1294.02 223.96 1306.8 223.397 1313.56C223.397 1314.06 223.397 1321.14 223.693 1322.92C220.729 1318.65 217.765 1314.36 215.275 1310.03C211.657 1304.18 208.429 1298.1 205.613 1291.83C206.087 1291.65 218.239 1287.32 222.448 1283.26C226.064 1279.71 229.71 1274.16 229.058 1268.83C228.96 1267.56 228.592 1266.33 227.978 1265.22C227.364 1264.11 226.519 1263.14 225.499 1262.38C224.48 1261.62 223.309 1261.09 222.067 1260.82C220.825 1260.55 219.54 1260.56 218.299 1260.83C210.859 1262.55 205.761 1275.29 205.198 1282.08C205.198 1282.52 205.198 1288.01 205.435 1290.47H204.99C202.329 1284.09 200.246 1277.48 198.766 1270.73C197.877 1267.02 197.254 1263.43 196.721 1259.91C199.092 1259.34 209.792 1256.59 213.971 1253.33C218.15 1250.07 222.211 1245.12 222.122 1239.75C222.167 1238.48 221.939 1237.21 221.453 1236.04C220.966 1234.86 220.234 1233.81 219.304 1232.94C218.374 1232.07 217.268 1231.41 216.062 1231.01C214.856 1230.6 213.577 1230.46 212.311 1230.59C204.753 1231.48 198.262 1243.61 196.958 1250.27C196.958 1250.63 196.543 1254.39 196.365 1257.15C196.158 1255.55 195.891 1253.92 195.713 1252.41C195.061 1246.69 194.794 1241.41 194.587 1236.73C194.587 1234.06 194.587 1231.66 194.587 1229.41C196.602 1227.63 204.635 1220.52 206.798 1215.68C208.962 1210.85 210.325 1204.6 207.776 1199.86C207.211 1198.72 206.413 1197.72 205.435 1196.91C204.457 1196.11 203.32 1195.52 202.099 1195.18C200.877 1194.84 199.599 1194.76 198.345 1194.95C197.092 1195.14 195.892 1195.59 194.824 1196.27C188.54 1200.54 188.362 1214.26 190.289 1220.81C190.289 1221.38 194.023 1229.91 194.142 1229.7C194.142 1231.87 194.142 1234.21 194.142 1236.73C194.142 1241.44 194.379 1246.72 194.913 1252.5C195.434 1258.71 196.325 1264.89 197.58 1270.99C198.938 1277.84 200.922 1284.55 203.508 1291.03V1291.27C202.086 1289.55 197.995 1284.83 197.58 1284.51C192.541 1279.94 180.152 1274.05 173.542 1277.81C172.446 1278.45 171.501 1279.33 170.77 1280.37C170.04 1281.41 169.541 1282.59 169.308 1283.84C169.075 1285.09 169.113 1286.38 169.419 1287.61C169.725 1288.85 170.292 1290 171.082 1291C174.046 1295.39 180.626 1296.93 185.724 1297.11C191.445 1297.25 202.886 1292.39 203.805 1292.01C206.563 1298.56 209.772 1304.92 213.408 1311.04C215.483 1314.62 217.676 1318.18 219.929 1321.68C218.684 1320.22 217.528 1318.95 217.35 1318.71C212.311 1314.15 199.922 1308.25 193.312 1312.01C192.216 1312.66 191.271 1313.53 190.54 1314.57C189.81 1315.61 189.311 1316.8 189.078 1318.05C188.845 1319.3 188.883 1320.58 189.189 1321.82C189.495 1323.05 190.062 1324.21 190.852 1325.2C193.816 1329.59 200.396 1331.13 205.494 1331.31C210.592 1331.49 220.314 1327.52 223.071 1326.42C223.96 1327.75 224.819 1329.12 225.679 1330.45C229.947 1336.88 234.186 1343.28 238.187 1349.66C239.58 1351.91 240.884 1354.19 242.218 1356.47C241.092 1355.17 240.114 1354.1 239.965 1353.96C234.927 1349.36 222.507 1343.46 215.898 1347.26C214.795 1347.9 213.843 1348.77 213.106 1349.81C212.37 1350.85 211.867 1352.04 211.63 1353.3C211.394 1354.55 211.431 1355.84 211.737 1357.08C212.044 1358.32 212.614 1359.48 213.408 1360.48C216.372 1364.83 222.952 1366.4 228.05 1366.55C233.148 1366.7 242.129 1363.17 245.212 1361.9Z" fill="#263238"/>
<path opacity="0.3" d="M176.625 1259.2C182.316 1260.92 195.565 1259.05 195.565 1259.02C195.565 1258.99 191.682 1250.69 191.386 1250.13C187.74 1244.38 177.336 1235.31 169.956 1237.32C168.723 1237.65 167.574 1238.23 166.588 1239.04C165.601 1239.85 164.799 1240.86 164.237 1242C163.675 1243.14 163.365 1244.4 163.329 1245.67C163.293 1246.94 163.531 1248.21 164.028 1249.39C165.984 1254.48 171.912 1257.71 176.625 1259.2Z" fill="#263238"/>
<path opacity="0.3" d="M311.22 1246.13C311.22 1246.13 312.584 1237.03 312.613 1236.43C312.613 1229.65 308.997 1216.43 301.795 1213.94C300.588 1213.54 299.31 1213.4 298.046 1213.54C296.783 1213.68 295.564 1214.09 294.472 1214.74C293.379 1215.38 292.438 1216.26 291.713 1217.3C290.987 1218.35 290.493 1219.53 290.265 1220.78C289.049 1226.03 292.073 1231.9 295.333 1235.81C299.157 1240.4 311.22 1246.13 311.22 1246.13Z" fill="#263238"/>
<path opacity="0.3" d="M245.212 1361.9C246.486 1364.27 247.761 1366.64 248.887 1368.98C249.628 1370.58 250.428 1372.09 251.08 1373.78C251.733 1375.47 252.414 1377.04 253.096 1378.65C254.252 1381.79 255.467 1385.02 256.505 1388.1C257.275 1390.23 257.957 1392.31 258.639 1394.38C257.246 1392.1 254.459 1387.74 254.193 1387.42C249.925 1382.11 238.543 1374.41 231.459 1377.13C230.289 1377.62 229.235 1378.35 228.365 1379.27C227.495 1380.2 226.829 1381.29 226.41 1382.49C225.991 1383.68 225.828 1384.95 225.931 1386.22C226.035 1387.48 226.404 1388.71 227.013 1389.82C229.443 1394.62 235.579 1397.14 240.558 1398.06C246.071 1399.04 257.661 1396.16 259.113 1395.78C260.239 1399.22 261.277 1402.56 262.077 1405.74C263.796 1411.37 265.219 1416.55 266.434 1421.12H271.502C270.08 1416.2 268.538 1410.6 266.404 1404.4C265.278 1400.9 264.003 1397.2 262.64 1393.41C266.024 1391.58 269.291 1389.54 272.421 1387.3C276.778 1391.03 287.241 1394.77 288.664 1395.24C287.686 1398.71 286.737 1402.09 285.7 1405.26C283.951 1411.19 282.202 1416.5 280.632 1421.12H285.73C287.093 1416.76 288.694 1411.9 290.057 1406.54C291.035 1403.01 292.013 1399.22 293.021 1395.3C294.473 1395.3 306.389 1396.4 311.665 1394.53C316.466 1392.84 322.098 1389.35 323.728 1384.22C324.184 1383.02 324.376 1381.74 324.291 1380.46C324.205 1379.18 323.845 1377.94 323.234 1376.81C322.623 1375.69 321.777 1374.71 320.752 1373.94C319.727 1373.17 318.548 1372.63 317.296 1372.36C309.857 1370.79 299.868 1380.25 296.548 1386.14C296.341 1386.5 294.622 1390.53 293.584 1393.08C293.97 1391.48 294.384 1389.94 294.77 1388.28C295.54 1385.05 296.193 1381.76 296.934 1378.23C297.23 1376.54 297.556 1374.79 297.852 1373.07C298.149 1371.35 298.327 1369.49 298.564 1367.65C299.068 1363.44 299.364 1359.17 299.542 1354.84C302.506 1355.5 312.554 1357.81 317.563 1356.77C322.572 1355.73 328.648 1353.24 331.049 1348.41C331.669 1347.3 332.043 1346.07 332.146 1344.8C332.249 1343.53 332.078 1342.26 331.646 1341.06C331.213 1339.86 330.528 1338.77 329.638 1337.86C328.747 1336.95 327.672 1336.24 326.485 1335.79C319.341 1333.12 308.049 1340.94 303.84 1346.28C303.573 1346.6 300.876 1350.78 299.601 1353.1C299.601 1350.49 299.809 1347.91 299.809 1345.27C299.809 1337.65 299.809 1329.95 299.483 1322.27V1315.22C300.49 1315.45 312.524 1318.39 318.126 1317.29C323.106 1316.34 329.212 1313.76 331.583 1308.93C332.203 1307.82 332.579 1306.59 332.684 1305.32C332.789 1304.06 332.62 1302.78 332.191 1301.59C331.761 1300.39 331.079 1299.3 330.192 1298.39C329.305 1297.48 328.233 1296.77 327.048 1296.31C319.905 1293.64 308.612 1301.46 304.403 1306.8C304.077 1307.21 300.342 1313.2 299.483 1314.77C299.483 1309.61 299.483 1304.46 299.483 1299.36C299.698 1292.5 300.361 1285.65 301.468 1278.88C301.943 1278.88 314.48 1282.08 320.231 1280.98C325.21 1280.03 331.316 1277.45 333.687 1272.62C334.308 1271.51 334.683 1270.28 334.788 1269.02C334.893 1267.75 334.725 1266.47 334.295 1265.28C333.865 1264.08 333.184 1262.99 332.297 1262.08C331.409 1261.17 330.337 1260.46 329.152 1260C322.009 1257.33 310.716 1265.15 306.478 1270.49C306.211 1270.84 303.514 1275.41 302.061 1277.6L301.646 1277.45C302.956 1270.66 304.86 1264 307.337 1257.54C308.671 1253.98 310.123 1250.63 311.605 1247.43C313.888 1248.23 324.321 1251.85 329.626 1251.43C334.932 1251.02 341.008 1249.12 343.913 1244.61C344.65 1243.58 345.156 1242.4 345.397 1241.15C345.638 1239.9 345.609 1238.61 345.311 1237.38C345.014 1236.14 344.454 1234.98 343.671 1233.98C342.888 1232.98 341.899 1232.16 340.771 1231.57C333.984 1228.13 321.89 1234.54 317.059 1239.49C316.792 1239.75 314.451 1242.72 312.761 1244.91C313.473 1243.46 314.154 1241.95 314.866 1240.61C317.444 1235.45 320.142 1230.92 322.572 1226.92C323.965 1224.64 325.269 1222.62 326.514 1220.72C329.152 1220.37 339.823 1218.77 344.298 1216.01C348.774 1213.25 353.368 1208.72 353.842 1203.35C354.022 1202.09 353.925 1200.8 353.559 1199.57C353.193 1198.34 352.567 1197.21 351.723 1196.25C350.878 1195.28 349.836 1194.51 348.667 1193.99C347.498 1193.47 346.231 1193.2 344.95 1193.22C337.333 1193.22 329.626 1204.69 327.611 1211.18C327.433 1211.74 325.744 1220.84 325.862 1220.81H326.04C324.795 1222.62 323.491 1224.55 322.128 1226.74C319.608 1230.68 316.792 1235.19 314.095 1240.32C311.096 1245.77 308.424 1251.41 306.092 1257.18C303.447 1263.64 301.384 1270.33 299.927 1277.16C299.927 1277.16 299.927 1277.34 299.927 1277.4C299.72 1275.17 298.89 1269.01 298.771 1268.5C297.111 1261.89 289.879 1250.13 282.41 1249.65C281.14 1249.58 279.871 1249.79 278.687 1250.25C277.504 1250.72 276.433 1251.43 275.548 1252.34C274.663 1253.26 273.985 1254.35 273.558 1255.55C273.131 1256.74 272.966 1258.02 273.073 1259.28C273.281 1264.68 277.756 1269.54 281.965 1272.45C286.648 1275.74 298.86 1278.02 299.749 1278.2C298.446 1285.18 297.604 1292.24 297.23 1299.33C296.993 1303.45 296.874 1307.63 296.815 1311.81C296.548 1309.88 296.311 1308.19 296.252 1307.95C294.592 1301.34 287.36 1289.58 279.891 1289.1C278.621 1289.03 277.351 1289.24 276.168 1289.7C274.984 1290.17 273.914 1290.88 273.029 1291.79C272.144 1292.71 271.465 1293.8 271.038 1295C270.611 1296.19 270.446 1297.47 270.554 1298.74C270.761 1304.13 275.237 1308.99 279.446 1311.9C283.655 1314.8 294.029 1316.99 296.785 1317.53C296.785 1319.13 296.785 1320.73 296.785 1322.33C296.785 1330.04 296.785 1337.71 296.607 1345.27C296.607 1347.91 296.37 1350.55 296.222 1353.15C295.985 1351.44 295.778 1350.01 295.718 1349.81C294.058 1343.2 286.974 1331.43 279.357 1330.95C278.09 1330.89 276.824 1331.1 275.644 1331.57C274.464 1332.03 273.397 1332.74 272.515 1333.66C271.634 1334.57 270.958 1335.66 270.532 1336.86C270.107 1338.05 269.943 1339.32 270.05 1340.59C270.258 1345.98 274.733 1350.84 278.942 1353.75C283.151 1356.65 292.517 1358.64 295.778 1359.29C295.54 1361.96 295.303 1364.63 294.948 1367.2C294.681 1368.98 294.533 1370.67 294.147 1372.42C293.762 1374.17 293.466 1375.89 293.11 1377.61C292.369 1380.84 291.598 1384.22 290.768 1387.39C290.205 1389.58 289.642 1391.66 289.049 1393.76C289.049 1391.12 289.257 1385.97 289.049 1385.52C288.276 1379.58 285.979 1373.95 282.38 1369.16C282.319 1368.5 282.2 1367.84 282.025 1367.2C281.736 1365.97 281.186 1364.8 280.41 1363.8C279.635 1362.79 278.652 1361.96 277.528 1361.36C276.404 1360.77 275.166 1360.42 273.896 1360.34C272.627 1360.27 271.355 1360.46 270.169 1360.92C263.114 1363.74 260.002 1377.1 260.447 1383.89C260.447 1384.31 261.247 1388.6 261.78 1391.3C261.217 1389.76 260.713 1388.34 260.121 1386.68C258.965 1383.54 257.72 1380.42 256.416 1377.1L254.548 1372.33C253.896 1370.7 252.977 1369.07 252.177 1367.41C250.28 1363.65 248.146 1359.91 245.923 1356.18C248.68 1355.17 258.372 1351.44 262.018 1347.88C265.663 1344.32 269.309 1338.78 268.657 1333.44C268.559 1332.18 268.191 1330.95 267.577 1329.83C266.963 1328.72 266.118 1327.75 265.098 1326.99C264.079 1326.24 262.908 1325.71 261.666 1325.44C260.424 1325.17 259.139 1325.17 257.898 1325.44C250.458 1327.16 245.36 1339.91 244.797 1346.69C244.797 1347.11 244.797 1352.03 245.004 1354.73C243.641 1352.5 242.307 1350.25 240.855 1348.06C236.705 1341.68 232.289 1335.37 227.902 1329.06L223.93 1323.13C224.908 1322.77 236.557 1318.59 240.647 1314.59C244.738 1310.59 247.939 1305.52 247.257 1300.19C247.121 1298.94 246.727 1297.74 246.099 1296.65C245.472 1295.56 244.625 1294.62 243.613 1293.88C242.601 1293.14 241.446 1292.61 240.221 1292.34C238.996 1292.07 237.728 1292.06 236.498 1292.3C229.088 1294.02 223.96 1306.8 223.397 1313.56C223.397 1314.06 223.397 1321.14 223.693 1322.92C220.729 1318.65 217.765 1314.36 215.275 1310.03C211.657 1304.18 208.429 1298.1 205.613 1291.83C206.087 1291.65 218.239 1287.32 222.448 1283.26C226.064 1279.71 229.71 1274.16 229.058 1268.83C228.96 1267.56 228.592 1266.33 227.978 1265.22C227.364 1264.11 226.519 1263.14 225.499 1262.38C224.48 1261.62 223.309 1261.09 222.067 1260.82C220.825 1260.55 219.54 1260.56 218.299 1260.83C210.859 1262.55 205.761 1275.29 205.198 1282.08C205.198 1282.52 205.198 1288.01 205.435 1290.47H204.99C202.329 1284.09 200.246 1277.48 198.766 1270.73C197.877 1267.02 197.254 1263.43 196.721 1259.91C199.092 1259.34 209.792 1256.59 213.971 1253.33C218.15 1250.07 222.211 1245.12 222.122 1239.75C222.167 1238.48 221.939 1237.21 221.453 1236.04C220.966 1234.86 220.234 1233.81 219.304 1232.94C218.374 1232.07 217.268 1231.41 216.062 1231.01C214.856 1230.6 213.577 1230.46 212.311 1230.59C204.753 1231.48 198.262 1243.61 196.958 1250.27C196.958 1250.63 196.543 1254.39 196.365 1257.15C196.158 1255.55 195.891 1253.92 195.713 1252.41C195.061 1246.69 194.794 1241.41 194.587 1236.73C194.587 1234.06 194.587 1231.66 194.587 1229.41C196.602 1227.63 204.635 1220.52 206.798 1215.68C208.962 1210.85 210.325 1204.6 207.776 1199.86C207.211 1198.72 206.413 1197.72 205.435 1196.91C204.457 1196.11 203.32 1195.52 202.099 1195.18C200.877 1194.84 199.599 1194.76 198.345 1194.95C197.092 1195.14 195.892 1195.59 194.824 1196.27C188.54 1200.54 188.362 1214.26 190.289 1220.81C190.289 1221.38 194.023 1229.91 194.142 1229.7C194.142 1231.87 194.142 1234.21 194.142 1236.73C194.142 1241.44 194.379 1246.72 194.913 1252.5C195.434 1258.71 196.325 1264.89 197.58 1270.99C198.938 1277.84 200.922 1284.55 203.508 1291.03V1291.27C202.086 1289.55 197.995 1284.83 197.58 1284.51C192.541 1279.94 180.152 1274.05 173.542 1277.81C172.446 1278.45 171.501 1279.33 170.77 1280.37C170.04 1281.41 169.541 1282.59 169.308 1283.84C169.075 1285.09 169.113 1286.38 169.419 1287.61C169.725 1288.85 170.292 1290 171.082 1291C174.046 1295.39 180.626 1296.93 185.724 1297.11C191.445 1297.25 202.886 1292.39 203.805 1292.01C206.563 1298.56 209.772 1304.92 213.408 1311.04C215.483 1314.62 217.676 1318.18 219.929 1321.68C218.684 1320.22 217.528 1318.95 217.35 1318.71C212.311 1314.15 199.922 1308.25 193.312 1312.01C192.216 1312.66 191.271 1313.53 190.54 1314.57C189.81 1315.61 189.311 1316.8 189.078 1318.05C188.845 1319.3 188.883 1320.58 189.189 1321.82C189.495 1323.05 190.062 1324.21 190.852 1325.2C193.816 1329.59 200.396 1331.13 205.494 1331.31C210.592 1331.49 220.314 1327.52 223.071 1326.42C223.96 1327.75 224.819 1329.12 225.679 1330.45C229.947 1336.88 234.186 1343.28 238.187 1349.66C239.58 1351.91 240.884 1354.19 242.218 1356.47C241.092 1355.17 240.114 1354.1 239.965 1353.96C234.927 1349.36 222.507 1343.46 215.898 1347.26C214.795 1347.9 213.843 1348.77 213.106 1349.81C212.37 1350.85 211.867 1352.04 211.63 1353.3C211.394 1354.55 211.431 1355.84 211.737 1357.08C212.044 1358.32 212.614 1359.48 213.408 1360.48C216.372 1364.83 222.952 1366.4 228.05 1366.55C233.148 1366.7 242.129 1363.17 245.212 1361.9Z" fill="#263238"/>
<g opacity="0.2">
<path d="M980.136 567.843C980.758 568.14 986.805 523.383 986.864 520.419C987.516 487.252 969.317 422.785 934.194 410.751C908.911 402.037 883.806 419.11 877.878 444.096C871.95 469.646 886.77 498.308 902.568 517.366C921.182 539.833 980.106 567.814 980.136 567.843Z" fill="black"/>
<path d="M323.61 631.332C351.471 639.75 416.027 630.621 416.086 630.591C416.738 630.591 397.117 589.866 395.605 587.435C377.821 559.425 327.107 515.706 291.124 524.984C265.219 531.801 253.718 559.9 262.61 583.908C271.68 608.568 299.898 624.278 323.61 631.332Z" fill="black"/>
<path d="M658.008 1132.25C664.232 1143.75 670.457 1155.28 675.97 1166.72C679.527 1174.63 683.528 1181.98 686.67 1190.13L696.451 1213.85C702.112 1229.17 708.04 1244.91 713.168 1260C716.814 1270.46 720.104 1280.48 723.453 1290.58C716.754 1279.56 703.179 1258.28 701.846 1256.62C681.098 1230.8 625.552 1193.22 590.903 1206.56C565.946 1216.19 557.736 1245.41 569.325 1268.33C581.181 1291.71 611.029 1304.1 635.393 1308.49C662.246 1313.32 718.74 1299.27 725.765 1297.46C731.248 1314.21 736.406 1330.51 741.03 1345.98C749.329 1373.49 756.324 1398.68 762.222 1421.03H786.883C780.066 1397.05 771.855 1369.63 762.044 1339.43C756.561 1322.42 750.188 1304.37 743.786 1285.87C760.232 1276.94 776.137 1267.04 791.418 1256.23C812.729 1274.43 863.947 1292.63 870.556 1294.91C865.903 1311.9 861.22 1328.35 856.537 1343.82C847.911 1372.57 839.494 1398.5 831.787 1421.12H856.685C863.324 1399.87 870.438 1376.13 877.67 1349.98C882.472 1332.76 887.273 1314.27 892.016 1295.24C899.129 1295.86 957.224 1300.66 983.011 1291.53C1006.37 1283.26 1033.81 1266.22 1041.73 1241.15C1049.46 1216.66 1036.66 1189.16 1010.46 1183.67C974.119 1176.09 925.45 1222.21 909.059 1250.99C908.081 1252.68 899.633 1272.3 894.535 1284.78C896.432 1276.98 898.359 1269.45 900.196 1261.39C903.961 1245.53 907.28 1229.59 910.867 1212.42L915.283 1187.14C916.913 1178.75 917.595 1169.65 918.81 1160.82C921.181 1140.28 922.604 1119.32 923.553 1098.25C937.454 1101.54 987.012 1112.42 1011.46 1107.77C1035.92 1103.11 1065.5 1090.46 1077.12 1066.95C1088.5 1043.92 1080.08 1014.78 1054.95 1005.39C1020.15 992.406 965.078 1030.55 944.508 1056.55C943.204 1058.18 930.548 1078.51 923.76 1089.8C924.234 1077.12 924.798 1064.43 924.857 1051.6C925.035 1014.46 924.086 976.905 923.286 939.41C923.019 927.939 922.93 916.498 922.782 905.028C927.702 906.243 986.33 920.47 1013.72 915.254C1038.05 910.63 1067.75 897.944 1079.37 874.439C1090.72 851.409 1082.33 822.273 1057.17 812.907C1022.37 799.895 967.331 838.041 946.731 864.065C945.19 866.021 926.991 895.276 922.723 902.953C922.397 877.729 922.308 852.565 923.227 827.786C924.29 794.296 927.527 760.91 932.919 727.84C935.201 728.433 996.319 743.549 1024.36 738.214C1048.69 733.56 1078.42 720.874 1090.01 697.37C1101.39 674.369 1092.97 645.204 1067.84 635.837C1033.13 622.855 978.12 660.972 957.372 687.026C956.009 688.715 942.137 711.004 935.794 721.764L933.808 721.023C940.114 687.893 949.379 655.396 961.492 623.922C967.924 606.523 975.037 590.221 982.24 574.542C993.325 578.513 1044.22 596.179 1069.97 594.134C1094.69 592.207 1125.61 582.871 1139.75 560.789C1153.56 539.152 1148.31 509.245 1124.42 497.181C1091.29 480.435 1032.36 512.298 1009.06 535.891C1007.79 537.166 996.349 551.66 988.138 562.3C991.547 555.276 994.926 547.955 998.305 541.286C1010.99 516.21 1024.12 494.039 1035.92 474.507C1042.74 463.451 1049.08 453.581 1055.15 444.392C1068.08 442.614 1120.07 434.848 1141.61 421.421C1162.63 408.321 1185.78 385.853 1188.15 359.652C1190.43 334.102 1172.02 309.975 1145.26 310.272C1108.12 310.686 1070.51 366.113 1060.7 397.798C1059.84 400.525 1051.48 444.867 1052.16 444.807H1052.93C1047 453.522 1040.6 462.918 1033.9 473.321C1021.63 492.646 1007.97 514.61 994.718 539.507C980.128 566.169 967.114 593.663 955.742 621.847C942.834 653.345 932.756 685.929 925.628 719.215C925.628 719.6 925.628 720.015 925.45 720.43C924.353 709.582 920.292 679.438 919.7 677.155C911.578 644.996 876.988 587.613 839.938 585.271C813.262 583.552 793.522 606.672 794.471 632.31C795.419 658.512 817.323 682.253 837.626 696.481C860.508 712.486 920.085 723.572 924.827 724.431C918.414 758.48 914.285 792.919 912.467 827.519C911.311 847.645 910.748 867.978 910.452 888.37C909.207 879.063 908.021 870.586 907.725 869.578C899.604 837.419 865.014 780.036 827.934 777.694C801.258 775.946 781.547 799.065 782.496 824.733C783.444 850.935 805.348 874.647 825.652 888.874C845.955 903.101 896.788 913.742 910.244 916.321C910.244 924.146 910.096 931.971 910.096 939.795C910.096 977.32 910.096 1014.78 909.237 1051.54C908.881 1064.49 908.081 1077.24 907.31 1090.07C906.184 1081.8 905.176 1074.84 904.909 1073.77C896.788 1041.61 862.198 984.255 825.148 981.884C798.472 980.165 778.732 1003.25 779.68 1028.92C780.629 1055.12 802.562 1078.87 822.836 1093.06C842.487 1106.82 889.111 1116.78 905.028 1120.07C903.872 1133.08 902.716 1146.15 900.967 1158.6C899.604 1167.16 898.863 1175.49 896.995 1184.03C895.128 1192.57 893.705 1200.89 892.075 1209.19C888.34 1225.08 884.576 1241.5 880.545 1256.91C877.818 1267.64 875.032 1277.84 872.276 1288.1C872.75 1275.2 873.194 1249.98 872.987 1247.84C870.882 1225.91 858.878 1191.26 840.383 1168.11C840.098 1164.86 839.513 1161.65 838.634 1158.51C831.609 1133.82 805.734 1117.93 780.866 1127.83C746.335 1141.55 731.189 1206.82 733.442 1239.9C733.442 1241.86 737.354 1262.87 739.963 1276.12C737.236 1268.56 734.687 1261.3 731.812 1253.48C726.18 1238.18 720.133 1223.04 713.702 1206.76C710.293 1199 706.884 1191.17 703.416 1183.23C699.949 1175.29 695.68 1167.37 691.827 1159.34C682.491 1140.9 672.146 1122.67 661.298 1104.53C674.695 1099.58 722.03 1081.33 739.844 1063.96C757.658 1046.59 775.412 1019.7 772.092 993.681C768.891 968.22 745.713 948.599 719.63 954.615C683.439 962.944 658.571 1025.16 655.755 1058.21C655.578 1060.25 656.2 1084.2 656.822 1097.33C650.213 1086.48 643.662 1075.64 636.638 1064.88C616.334 1033.81 594.786 1003.02 573.445 972.192C566.924 962.737 560.522 953.252 554.06 943.797C558.833 942.078 615.593 921.596 635.541 902.153C653.325 884.843 671.109 857.9 667.789 831.876C664.588 806.415 641.41 786.794 615.326 792.811C579.136 801.14 554.268 863.324 551.452 896.373C551.215 898.863 552.193 933.334 552.875 942.078C538.677 921.33 524.747 900.285 511.823 879.122C494.24 850.596 478.518 820.963 464.755 790.41C467.008 789.61 526.317 768.506 546.769 748.588C564.553 731.308 582.337 704.335 578.988 678.311C575.787 652.851 552.608 633.229 526.555 639.246C490.334 647.575 465.467 709.789 462.651 742.808C462.473 745.001 463.184 771.262 463.807 783.711L461.762 784.185C448.815 752.979 438.706 720.669 431.558 687.648C427.32 669.597 424.267 652.08 421.688 634.978C433.159 632.162 485.355 618.794 505.718 602.907C525.25 587.643 545.88 562.804 545.495 536.603C545.08 510.934 524.213 488.882 497.626 491.994C460.754 496.292 429.187 555.394 422.755 587.939C422.4 589.688 420.829 608.094 419.791 621.491C418.754 613.755 417.539 605.782 416.827 598.343C413.567 570.451 412.292 544.694 411.344 521.901C410.929 508.919 410.781 497.181 410.781 486.333C420.592 477.738 459.657 442.555 470.239 419.465C480.524 396.939 487.4 365.372 474.951 342.401C462.769 319.816 434.107 309.797 411.937 324.854C381.2 345.602 380.429 412.678 389.707 444.541C390.507 447.268 407.995 489.001 408.528 488.438L409.121 487.904C408.913 498.486 408.795 509.838 408.943 522.227C409.388 545.08 410.099 570.955 412.767 599.024C415.318 629.305 419.633 659.411 425.69 689.189C432.294 722.583 441.876 755.318 454.322 787.001C454.47 787.387 454.678 787.742 454.826 788.128C447.92 779.71 427.883 756.798 426.164 755.198C401.652 732.849 341.127 704.098 308.908 722.594C285.67 735.902 281.995 766.016 297.052 786.912C312.109 807.808 343.676 815.959 368.455 816.552C396.376 817.293 452.158 793.67 456.575 791.773C470.022 823.701 485.589 854.694 503.169 884.546C513.305 902.004 523.917 919.285 535.032 936.446C528.866 929.362 523.176 923.049 522.405 922.278C497.893 899.9 437.368 871.149 405.149 889.674C381.911 902.953 378.236 933.097 393.293 953.963C408.558 975.304 439.917 983.011 464.696 983.603C489.475 984.196 537.788 965.078 550.415 959.891C554.683 966.442 558.892 973.022 563.219 979.543C583.967 1010.87 604.715 1042.05 624.129 1073.23C631.006 1084.23 637.349 1095.32 643.751 1106.37C638.238 1100.06 633.555 1094.81 632.755 1094.1C608.242 1071.75 547.747 1042.97 515.528 1061.5C492.291 1074.78 488.615 1104.92 503.672 1125.79C518.937 1147.13 550.296 1154.83 575.046 1155.43C598.728 1155.96 643.188 1138.47 658.008 1132.25Z" fill="black"/>
<path opacity="0.3" d="M323.61 631.332C351.471 639.75 416.027 630.621 416.086 630.591C416.738 630.591 397.117 589.866 395.605 587.435C377.821 559.425 327.107 515.706 291.124 524.984C265.219 531.801 253.718 559.9 262.61 583.908C271.68 608.568 299.898 624.278 323.61 631.332Z" fill="black"/>
<path opacity="0.3" d="M980.136 567.843C980.758 568.14 986.805 523.383 986.864 520.419C987.516 487.252 969.317 422.785 934.194 410.751C908.911 402.037 883.806 419.11 877.878 444.096C871.95 469.646 886.77 498.308 902.568 517.366C921.182 539.833 980.106 567.814 980.136 567.843Z" fill="black"/>
<path opacity="0.3" d="M658.008 1132.25C664.232 1143.75 670.457 1155.28 675.97 1166.72C679.527 1174.63 683.528 1181.98 686.67 1190.13L696.451 1213.85C702.112 1229.17 708.04 1244.91 713.168 1260C716.814 1270.46 720.104 1280.48 723.453 1290.58C716.754 1279.56 703.179 1258.28 701.846 1256.62C681.098 1230.8 625.552 1193.22 590.903 1206.56C565.946 1216.19 557.736 1245.41 569.325 1268.33C581.181 1291.71 611.029 1304.1 635.393 1308.49C662.246 1313.32 718.74 1299.27 725.765 1297.46C731.248 1314.21 736.406 1330.51 741.03 1345.98C749.329 1373.49 756.324 1398.68 762.222 1421.03H786.883C780.066 1397.05 771.855 1369.63 762.044 1339.43C756.561 1322.42 750.188 1304.37 743.786 1285.87C760.232 1276.94 776.137 1267.04 791.418 1256.23C812.729 1274.43 863.947 1292.63 870.556 1294.91C865.903 1311.9 861.22 1328.35 856.537 1343.82C847.911 1372.57 839.494 1398.5 831.787 1421.12H856.685C863.324 1399.87 870.438 1376.13 877.67 1349.98C882.472 1332.76 887.273 1314.27 892.016 1295.24C899.129 1295.86 957.224 1300.66 983.011 1291.53C1006.37 1283.26 1033.81 1266.22 1041.73 1241.15C1049.46 1216.66 1036.66 1189.16 1010.46 1183.67C974.119 1176.09 925.45 1222.21 909.059 1250.99C908.081 1252.68 899.633 1272.3 894.535 1284.78C896.432 1276.98 898.359 1269.45 900.196 1261.39C903.961 1245.53 907.28 1229.59 910.867 1212.42L915.283 1187.14C916.913 1178.75 917.595 1169.65 918.81 1160.82C921.181 1140.28 922.604 1119.32 923.553 1098.25C937.454 1101.54 987.012 1112.42 1011.46 1107.77C1035.92 1103.11 1065.5 1090.46 1077.12 1066.95C1088.5 1043.92 1080.08 1014.78 1054.95 1005.39C1020.15 992.406 965.078 1030.55 944.508 1056.55C943.204 1058.18 930.548 1078.51 923.76 1089.8C924.234 1077.12 924.798 1064.43 924.857 1051.6C925.035 1014.46 924.086 976.905 923.286 939.41C923.019 927.939 922.93 916.498 922.782 905.028C927.702 906.243 986.33 920.47 1013.72 915.254C1038.05 910.63 1067.75 897.944 1079.37 874.439C1090.72 851.409 1082.33 822.273 1057.17 812.907C1022.37 799.895 967.331 838.041 946.731 864.065C945.19 866.021 926.991 895.276 922.723 902.953C922.397 877.729 922.308 852.565 923.227 827.786C924.29 794.296 927.527 760.91 932.919 727.84C935.201 728.433 996.319 743.549 1024.36 738.214C1048.69 733.56 1078.42 720.874 1090.01 697.37C1101.39 674.369 1092.97 645.204 1067.84 635.837C1033.13 622.855 978.12 660.972 957.372 687.026C956.009 688.715 942.137 711.004 935.794 721.764L933.808 721.023C940.114 687.893 949.379 655.396 961.492 623.922C967.924 606.523 975.037 590.221 982.24 574.542C993.325 578.513 1044.22 596.179 1069.97 594.134C1094.69 592.207 1125.61 582.871 1139.75 560.789C1153.56 539.152 1148.31 509.245 1124.42 497.181C1091.29 480.435 1032.36 512.298 1009.06 535.891C1007.79 537.166 996.349 551.66 988.138 562.3C991.547 555.276 994.926 547.955 998.305 541.286C1010.99 516.21 1024.12 494.039 1035.92 474.507C1042.74 463.451 1049.08 453.581 1055.15 444.392C1068.08 442.614 1120.07 434.848 1141.61 421.421C1162.63 408.321 1185.78 385.853 1188.15 359.652C1190.43 334.102 1172.02 309.975 1145.26 310.272C1108.12 310.686 1070.51 366.113 1060.7 397.798C1059.84 400.525 1051.48 444.867 1052.16 444.807H1052.93C1047 453.522 1040.6 462.918 1033.9 473.321C1021.63 492.646 1007.97 514.61 994.718 539.507C980.128 566.169 967.114 593.663 955.742 621.847C942.834 653.345 932.756 685.929 925.628 719.215C925.628 719.6 925.628 720.015 925.45 720.43C924.353 709.582 920.292 679.438 919.7 677.155C911.578 644.996 876.988 587.613 839.938 585.271C813.262 583.552 793.522 606.672 794.471 632.31C795.419 658.512 817.323 682.253 837.626 696.481C860.508 712.486 920.085 723.572 924.827 724.431C918.414 758.48 914.285 792.919 912.467 827.519C911.311 847.645 910.748 867.978 910.452 888.37C909.207 879.063 908.021 870.586 907.725 869.578C899.604 837.419 865.014 780.036 827.934 777.694C801.258 775.946 781.547 799.065 782.496 824.733C783.444 850.935 805.348 874.647 825.652 888.874C845.955 903.101 896.788 913.742 910.244 916.321C910.244 924.146 910.096 931.971 910.096 939.795C910.096 977.32 910.096 1014.78 909.237 1051.54C908.881 1064.49 908.081 1077.24 907.31 1090.07C906.184 1081.8 905.176 1074.84 904.909 1073.77C896.788 1041.61 862.198 984.255 825.148 981.884C798.472 980.165 778.732 1003.25 779.68 1028.92C780.629 1055.12 802.562 1078.87 822.836 1093.06C842.487 1106.82 889.111 1116.78 905.028 1120.07C903.872 1133.08 902.716 1146.15 900.967 1158.6C899.604 1167.16 898.863 1175.49 896.995 1184.03C895.128 1192.57 893.705 1200.89 892.075 1209.19C888.34 1225.08 884.576 1241.5 880.545 1256.91C877.818 1267.64 875.032 1277.84 872.276 1288.1C872.75 1275.2 873.194 1249.98 872.987 1247.84C870.882 1225.91 858.878 1191.26 840.383 1168.11C840.098 1164.86 839.513 1161.65 838.634 1158.51C831.609 1133.82 805.734 1117.93 780.866 1127.83C746.335 1141.55 731.189 1206.82 733.442 1239.9C733.442 1241.86 737.354 1262.87 739.963 1276.12C737.236 1268.56 734.687 1261.3 731.812 1253.48C726.18 1238.18 720.133 1223.04 713.702 1206.76C710.293 1199 706.884 1191.17 703.416 1183.23C699.949 1175.29 695.68 1167.37 691.827 1159.34C682.491 1140.9 672.146 1122.67 661.298 1104.53C674.695 1099.58 722.03 1081.33 739.844 1063.96C757.658 1046.59 775.412 1019.7 772.092 993.681C768.891 968.22 745.713 948.599 719.63 954.615C683.439 962.944 658.571 1025.16 655.755 1058.21C655.578 1060.25 656.2 1084.2 656.822 1097.33C650.213 1086.48 643.662 1075.64 636.638 1064.88C616.334 1033.81 594.786 1003.02 573.445 972.192C566.924 962.737 560.522 953.252 554.06 943.797C558.833 942.078 615.593 921.596 635.541 902.153C653.325 884.843 671.109 857.9 667.789 831.876C664.588 806.415 641.41 786.794 615.326 792.811C579.136 801.14 554.268 863.324 551.452 896.373C551.215 898.863 552.193 933.334 552.875 942.078C538.677 921.33 524.747 900.285 511.823 879.122C494.24 850.596 478.518 820.963 464.755 790.41C467.008 789.61 526.317 768.506 546.769 748.588C564.553 731.308 582.337 704.335 578.988 678.311C575.787 652.851 552.608 633.229 526.555 639.246C490.334 647.575 465.467 709.789 462.651 742.808C462.473 745.001 463.184 771.262 463.807 783.711L461.762 784.185C448.815 752.979 438.706 720.669 431.558 687.648C427.32 669.597 424.267 652.08 421.688 634.978C433.159 632.162 485.355 618.794 505.718 602.907C525.25 587.643 545.88 562.804 545.495 536.603C545.08 510.934 524.213 488.882 497.626 491.994C460.754 496.292 429.187 555.394 422.755 587.939C422.4 589.688 420.829 608.094 419.791 621.491C418.754 613.755 417.539 605.782 416.827 598.343C413.567 570.451 412.292 544.694 411.344 521.901C410.929 508.919 410.781 497.181 410.781 486.333C420.592 477.738 459.657 442.555 470.239 419.465C480.524 396.939 487.4 365.372 474.951 342.401C462.769 319.816 434.107 309.797 411.937 324.854C381.2 345.602 380.429 412.678 389.707 444.541C390.507 447.268 407.995 489.001 408.528 488.438L409.121 487.904C408.913 498.486 408.795 509.838 408.943 522.227C409.388 545.08 410.099 570.955 412.767 599.024C415.318 629.305 419.633 659.411 425.69 689.189C432.294 722.583 441.876 755.318 454.322 787.001C454.47 787.387 454.678 787.742 454.826 788.128C447.92 779.71 427.883 756.798 426.164 755.198C401.652 732.849 341.127 704.098 308.908 722.594C285.67 735.902 281.995 766.016 297.052 786.912C312.109 807.808 343.676 815.959 368.455 816.552C396.376 817.293 452.158 793.67 456.575 791.773C470.022 823.701 485.589 854.694 503.169 884.546C513.305 902.004 523.917 919.285 535.032 936.446C528.866 929.362 523.176 923.049 522.405 922.278C497.893 899.9 437.368 871.149 405.149 889.674C381.911 902.953 378.236 933.097 393.293 953.963C408.558 975.304 439.917 983.011 464.696 983.603C489.475 984.196 537.788 965.078 550.415 959.891C554.683 966.442 558.892 973.022 563.219 979.543C583.967 1010.87 604.715 1042.05 624.129 1073.23C631.006 1084.23 637.349 1095.32 643.751 1106.37C638.238 1100.06 633.555 1094.81 632.755 1094.1C608.242 1071.75 547.747 1042.97 515.528 1061.5C492.291 1074.78 488.615 1104.92 503.672 1125.79C518.937 1147.13 550.296 1154.83 575.046 1155.43C598.728 1155.96 643.188 1138.47 658.008 1132.25Z" fill="black"/>
</g>
<path d="M355.117 149.148C355.117 149.148 340.534 111.624 288.457 107.475C236.379 103.325 230.125 159.552 219.721 167.881C209.318 176.21 188.451 153.298 167.614 161.627C154.971 166.888 144.626 176.497 138.448 188.718C138.448 188.718 119.716 180.389 107.208 182.464C94.6998 184.539 80.1169 203.212 80.1169 203.212H432.211C432.211 203.212 432.211 167.644 407.224 155.284C382.237 142.924 371.804 169.896 365.55 167.792C359.296 165.688 355.117 149.148 355.117 149.148Z" stroke="#263238" stroke-miterlimit="10"/>
<path d="M1364.95 425.571C1364.95 425.571 1352.56 393.679 1308.25 390.003C1263.94 386.328 1258.63 434.434 1249.77 441.636C1240.91 448.839 1223.09 429.217 1205.46 436.301C1194.7 440.78 1185.9 448.96 1180.65 459.361C1180.65 459.361 1164.7 452.277 1153.97 454.026C1143.24 455.774 1130.94 471.81 1130.94 471.81H1430.31C1430.31 471.81 1430.31 441.695 1409.06 431.055C1387.8 420.414 1378.91 443.474 1373.49 441.695C1368.06 439.917 1364.95 425.571 1364.95 425.571Z" stroke="#263238" stroke-miterlimit="10"/>
<path d="M378.414 1010.96C378.414 1010.96 360.956 966.027 298.534 961.047C236.112 956.068 228.643 1023.44 216.164 1033.43C203.686 1043.42 178.729 1015.97 153.772 1025.96C138.621 1032.24 126.223 1043.75 118.827 1058.38C118.827 1058.38 96.3595 1048.43 81.3617 1050.92C66.3639 1053.41 48.9355 1075.93 48.9355 1075.93H470.772C470.772 1075.93 470.772 1033.49 440.836 1018.52C410.899 1003.55 398.391 1035.98 390.922 1033.49C383.453 1031 378.414 1010.96 378.414 1010.96Z" stroke="#263238" stroke-miterlimit="10"/>
<path d="M1284.33 877.492C1361.69 877.492 1424.41 814.777 1424.41 737.414C1424.41 660.05 1361.69 597.335 1284.33 597.335C1206.97 597.335 1144.25 660.05 1144.25 737.414C1144.25 814.777 1206.97 877.492 1284.33 877.492Z" stroke="#263238" stroke-miterlimit="10"/>
<path d="M1284.33 877.492C1328.81 877.492 1364.86 814.777 1364.86 737.414C1364.86 660.05 1328.81 597.335 1284.33 597.335C1239.85 597.335 1203.8 660.05 1203.8 737.414C1203.8 814.777 1239.85 877.492 1284.33 877.492Z" stroke="#263238" stroke-miterlimit="10"/>
<path d="M1284.33 597.335V877.492" stroke="#263238" stroke-miterlimit="10"/>
<path d="M1202.11 624.574H1365.69" stroke="#263238" stroke-miterlimit="10"/>
<path d="M1202.11 851.913H1365.69" stroke="#263238" stroke-miterlimit="10"/>
<path d="M1154.98 680.475H1412.82" stroke="#263238" stroke-miterlimit="10"/>
<path d="M1154.98 792.307H1412.82" stroke="#263238" stroke-miterlimit="10"/>
<path d="M1144.81 736.406H1422.99" stroke="#263238" stroke-miterlimit="10"/>
<path d="M1255.46 114.084H927.347C915.937 114.084 906.688 123.334 906.688 134.744V171.201C906.688 182.61 915.937 191.86 927.347 191.86H1255.46C1266.87 191.86 1276.12 182.61 1276.12 171.201V134.744C1276.12 123.334 1266.87 114.084 1255.46 114.084Z" stroke="#263238" stroke-miterlimit="10"/>
<path d="M1186.04 113.818V193.371" stroke="#263238" stroke-miterlimit="10"/>
<path d="M1267.55 175.291L1246.36 159.374C1249.27 153.713 1249.96 147.167 1248.28 141.026C1246.61 134.885 1242.69 129.594 1237.31 126.197C1231.92 122.8 1225.46 121.542 1219.2 122.673C1212.93 123.803 1207.32 127.239 1203.46 132.303C1199.61 137.368 1197.79 143.693 1198.36 150.033C1198.94 156.373 1201.87 162.267 1206.58 166.553C1211.28 170.839 1217.42 173.207 1223.79 173.189C1230.16 173.172 1236.28 170.77 1240.97 166.458L1262.22 182.405C1262.99 182.978 1263.93 183.29 1264.89 183.294C1265.82 183.294 1266.73 183 1267.49 182.454C1268.24 181.909 1268.81 181.139 1269.1 180.254C1269.4 179.368 1269.41 178.413 1269.13 177.522C1268.85 176.631 1268.3 175.851 1267.55 175.291ZM1223.87 164.294C1220.62 164.3 1217.45 163.344 1214.75 161.547C1212.05 159.749 1209.95 157.191 1208.7 154.197C1207.46 151.202 1207.13 147.906 1207.76 144.724C1208.38 141.543 1209.94 138.619 1212.23 136.324C1214.53 134.029 1217.45 132.465 1220.63 131.83C1223.81 131.195 1227.1 131.518 1230.1 132.758C1233.1 133.997 1235.66 136.098 1237.46 138.794C1239.26 141.49 1240.23 144.66 1240.23 147.904C1240.22 152.243 1238.49 156.403 1235.43 159.475C1232.36 162.546 1228.2 164.279 1223.87 164.294Z" stroke="#263238" stroke-miterlimit="10"/>
<path d="M317.148 476.73L233.119 413.804C244.575 391.457 247.246 365.629 240.604 341.411C233.962 317.192 218.49 296.34 197.236 282.964C175.982 269.587 150.489 264.657 125.781 269.145C101.072 273.632 78.9409 287.212 63.7483 307.208C48.5558 327.204 41.404 352.165 43.7027 377.172C46.0013 402.179 57.5835 425.419 76.1666 442.31C94.7497 459.201 118.986 468.519 144.098 468.427C169.211 468.335 193.378 458.84 211.837 441.814L295.896 504.858C297.733 506.36 299.855 507.475 302.134 508.136C304.413 508.798 306.802 508.991 309.157 508.706C311.513 508.421 313.787 507.662 315.842 506.476C317.897 505.29 319.691 503.7 321.116 501.803C322.541 499.906 323.569 497.74 324.136 495.436C324.703 493.132 324.799 490.737 324.417 488.395C324.035 486.053 323.184 483.813 321.915 481.808C320.645 479.803 318.983 478.076 317.029 476.73H317.148ZM144.139 433.248C131.31 433.254 118.768 429.454 108.098 422.331C97.4287 415.207 89.1119 405.079 84.1997 393.227C79.2875 381.376 78.0007 368.334 80.5021 355.751C83.0035 343.168 89.1807 331.61 98.2522 322.538C107.324 313.466 118.882 307.289 131.465 304.788C144.048 302.286 157.09 303.573 168.941 308.485C180.793 313.398 190.921 321.714 198.045 332.384C205.169 343.053 208.968 355.596 208.962 368.425C208.939 385.61 202.101 402.084 189.95 414.236C177.798 426.387 161.324 433.224 144.139 433.248Z" stroke="#263238" stroke-miterlimit="10"/>
<path d="M731.871 575.757C571.37 575.757 435.174 666.663 386.98 792.751C386.549 793.906 386.5 795.17 386.842 796.354C387.184 797.539 387.897 798.583 388.877 799.331L523.828 903.071C524.829 903.823 526.043 904.238 527.296 904.257H548.933C549.699 904.253 550.457 904.096 551.162 903.794C551.866 903.492 552.503 903.051 553.034 902.498C553.564 901.945 553.979 901.291 554.252 900.575C554.525 899.859 554.651 899.095 554.624 898.329C554.624 896.728 554.624 895.128 554.624 893.527C554.624 807.927 634 738.51 731.96 738.51C829.92 738.51 909.296 807.927 909.296 893.527C909.296 979.128 829.92 1048.49 731.871 1048.49C716.812 1048.48 701.801 1046.8 687.114 1043.48C685.765 1043.16 684.382 1043 682.994 1043C679.919 1043.01 676.892 1043.76 674.171 1045.2C671.45 1046.63 669.117 1048.7 667.37 1051.23C665.622 1053.76 664.513 1056.68 664.137 1059.73C663.761 1062.78 664.13 1065.88 665.21 1068.76L684.921 1120.98V1240.67H901.56V1191.17C901.538 1186.32 902.854 1181.56 905.364 1177.4C907.874 1173.25 911.481 1169.87 915.787 1167.64C1023.29 1112.42 1095.46 1010.34 1095.46 893.498C1095.41 717.999 932.652 575.757 731.871 575.757Z" fill="#263238" stroke="#263238" stroke-miterlimit="10"/>
<path d="M901.501 1264.12H684.862V1421.15H901.501V1264.12Z" fill="#263238" stroke="#263238" stroke-miterlimit="10"/>
<path d="M1065.77 893.498C1065.77 717.999 903.012 575.757 702.231 575.757C541.878 575.757 405.831 666.455 357.488 792.366C357.057 793.606 357.051 794.955 357.469 796.199C357.888 797.444 358.707 798.514 359.8 799.242L516.121 898.418C516.988 898.995 517.996 899.325 519.036 899.372C520.076 899.419 521.109 899.181 522.024 898.684C522.939 898.187 523.701 897.449 524.228 896.551C524.755 895.653 525.026 894.628 525.013 893.587C525.013 807.986 604.419 738.569 702.349 738.569C800.28 738.569 879.686 807.986 879.686 893.587C879.686 979.187 800.28 1048.49 702.231 1048.49C693.798 1048.49 685.374 1047.96 677.007 1046.91C674.32 1046.56 671.588 1046.77 668.992 1047.56C666.397 1048.34 663.999 1049.67 661.959 1051.45C659.918 1053.24 658.283 1055.44 657.162 1057.91C656.041 1060.38 655.46 1063.05 655.459 1065.77V1120.98H655.222V1240.67H871.861V1191.17C871.845 1186.32 873.164 1181.56 875.674 1177.41C878.183 1173.26 881.786 1169.88 886.088 1167.64C993.592 1112.42 1065.77 1010.34 1065.77 893.498Z" fill="#00A962" stroke="#263238" stroke-miterlimit="10"/>
<path d="M871.86 1264.12H655.222V1421.15H871.86V1264.12Z" fill="#00A962" stroke="#263238" stroke-miterlimit="10"/>
<path d="M683.202 269.131C683.202 269.131 661.802 278.616 652.08 283.032C646.57 285.668 640.836 287.81 634.948 289.434L651.28 298L697.281 290.768L683.202 269.131Z" fill="white" stroke="#263238" stroke-miterlimit="10"/>
<path d="M615 279.001C612.032 276.158 609.585 272.818 607.768 269.131C605.634 264.033 601.336 266.434 601.336 270.198C601.478 273.857 602.695 277.393 604.834 280.365C605.901 280.898 617.134 282.765 617.134 282.765L615 279.001Z" stroke="#263238" stroke-miterlimit="10"/>
<path d="M691.738 301.706L696.273 327.374C696.273 327.374 687.381 378.325 685.662 407.639C683.943 436.953 682.698 456.041 684.387 463.688C686.077 471.335 708.099 545.643 708.099 545.643C708.099 545.643 704.276 550.326 704.276 551.571C704.276 552.816 703.861 557.499 703.861 557.499C700.517 560.835 696.963 563.954 693.22 566.835C688.567 570.244 678.785 573.208 680.505 576.617C682.224 580.025 693.665 576.617 706.41 576.617C719.155 576.617 728.047 578.306 732.73 574.927C737.413 571.548 733.145 558.773 733.145 558.773C733.145 558.773 733.59 549.881 734.005 547.303C734.42 544.724 728.492 531.593 728.907 527.77C729.322 523.946 718.77 447.564 718.77 447.564L739.992 369.018C739.992 369.018 774.819 457.345 779.087 461.584C783.355 465.822 840.649 538.885 840.649 538.885C840.649 538.885 836.826 543.123 838.1 545.257C839.139 546.878 840.277 548.432 841.509 549.911C841.509 549.911 837.241 558.803 834.692 562.656C832.143 566.509 824.94 568.584 826.215 571.163C827.489 573.741 840.649 574.127 843.999 573.267C847.348 572.408 860.982 557.558 864.747 554.594C868.511 551.63 875.773 546.087 875.773 542.264C875.773 538.44 868.57 533.787 868.126 532.512C867.681 531.238 866.851 525.725 864.302 524.006C861.834 522.451 859.281 521.036 856.655 519.767C854.966 518.907 812.491 445.015 812.491 445.015C812.491 445.015 793.403 331.227 788.305 318.067C783.207 304.907 754.249 267.056 754.249 267.056L691.738 301.706Z" fill="#263238" stroke="#263238" stroke-miterlimit="10"/>
<path d="M645.5 231.192C645.5 231.192 651.102 256.89 658.186 263.618C665.27 270.346 679.438 272.184 679.438 272.184L691.738 301.646C691.738 301.646 736.465 287.834 754.367 266.967C754.367 266.967 733.619 233.8 718.207 212.548C702.794 191.296 709.255 187.621 687.648 174.876C666.04 162.131 648.493 179.737 648.493 179.737C648.493 179.737 632.102 180.537 645.5 231.192Z" fill="#00A962" stroke="#263238" stroke-miterlimit="10"/>
<path d="M619.091 107.504C619.091 107.504 614.734 98.6122 586.487 103.117C577.19 104.218 568.519 108.365 561.827 114.912C555.135 121.459 550.799 130.037 549.496 139.308C548.37 148.2 549.496 147.785 546.769 150.008C544.042 152.231 531.949 150.779 534.083 163.82C536.217 176.862 551.63 169.392 553.853 173.868C554.852 176.186 556.506 178.161 558.613 179.551C560.719 180.941 563.185 181.686 565.709 181.693C572.022 182.078 578.01 174.609 578.751 171.645C579.492 168.681 585.835 166.043 597.009 172.771C608.183 179.5 623.092 191.385 638.772 178.344C654.451 165.302 634 119.034 619.091 107.504Z" fill="#263238" stroke="#263238" stroke-miterlimit="10"/>
<path d="M560.522 163.02C561.747 167.101 563.324 171.068 565.235 174.876C567.576 178.907 576.29 182.612 576.646 188.629C577.002 194.646 574.957 198.706 576.646 199.714C578.336 200.722 586.368 198.38 586.368 198.38C586.368 198.38 604.152 210.236 608.509 208.428C612.866 206.62 621.254 195.001 621.254 195.001L640.224 208.488L645.5 231.192L652.228 220.373C652.228 220.373 639.542 205.079 644.018 192.423L648.493 179.737C648.493 179.737 619.921 175.795 616.216 171.112C612.511 166.428 605.812 154.661 599.795 152.972C593.778 151.282 591.407 159.7 592.059 161.716C592.711 163.731 582.011 163.375 575.283 160.708L568.584 158.011C566.895 157.418 560.522 160.056 560.522 163.02Z" fill="white" stroke="#263238" stroke-miterlimit="10"/>
<path d="M573.267 176.862C573.267 176.862 572.941 170.934 577.98 170.163" stroke="#263238" stroke-miterlimit="10"/>
<path d="M582.485 178.907C584.145 180.27 584.797 182.167 583.967 183.175C583.137 184.183 581.003 183.887 579.521 182.553C578.039 181.219 577.18 179.263 578.01 178.285C578.839 177.306 580.944 177.544 582.485 178.907Z" fill="#263238"/>
<path d="M595.082 198.588C595.082 198.588 597.098 197.254 595.438 191.889" stroke="#263238" stroke-miterlimit="10"/>
<path d="M609.191 161.093C609.191 161.093 613.874 166.132 612.155 168.8C611.311 170.265 610.158 171.53 608.776 172.505C608.776 172.505 613.163 176.862 613.489 179.559" fill="white"/>
<path d="M609.191 161.093C609.191 161.093 613.874 166.132 612.155 168.8C611.311 170.265 610.158 171.53 608.776 172.505C608.776 172.505 613.163 176.862 613.489 179.559" stroke="#263238" stroke-miterlimit="10"/>
<path d="M595.023 147.785C595.023 147.785 611.562 158.574 620.306 172.06C629.05 185.546 653.947 184.835 662.75 177.425C671.553 170.015 673.184 162.842 679.971 164.532C686.759 166.221 703.061 171.793 713.672 163.998C724.283 156.203 716.34 140.701 727.128 143.517C732.903 145.098 739.03 144.801 744.625 142.67C750.22 140.539 754.992 136.683 758.25 131.661C765.542 120.338 771.144 101.013 750.722 75.7597C735.072 56.3159 711.627 61.414 704.602 62.3921C697.577 63.3702 699.889 55.6638 676.948 55.6638C653.236 55.6638 642.062 75.8487 640.52 81.4803C638.979 87.1119 645.381 90.9354 627.034 84.6517C608.687 78.3681 599.736 85.3335 600.062 94.759C600.388 104.184 579.669 107.415 575.787 108.927" fill="#263238"/>
<path d="M595.023 147.785C595.023 147.785 611.562 158.574 620.306 172.06C629.05 185.546 653.947 184.835 662.75 177.425C671.553 170.015 673.184 162.842 679.971 164.532C686.759 166.221 703.061 171.793 713.672 163.998C724.283 156.203 716.34 140.701 727.128 143.517C732.903 145.098 739.03 144.801 744.625 142.67C750.22 140.539 754.992 136.683 758.25 131.661C765.542 120.338 771.144 101.013 750.722 75.7597C735.072 56.3159 711.627 61.414 704.602 62.3921C697.577 63.3702 699.889 55.6638 676.948 55.6638C653.236 55.6638 642.062 75.8487 640.52 81.4803C638.979 87.1119 645.381 90.9354 627.034 84.6517C608.687 78.3681 599.736 85.3335 600.062 94.759C600.388 104.184 579.669 107.415 575.787 108.927" stroke="#263238" stroke-miterlimit="10"/>
<path d="M806.652 342.016C805.784 342.02 804.919 341.92 804.074 341.719L573.801 282.291C572.839 282.056 571.934 281.633 571.136 281.048C570.337 280.462 569.662 279.725 569.149 278.879C568.636 278.033 568.294 277.093 568.144 276.115C567.993 275.137 568.037 274.138 568.273 273.177C568.508 272.215 568.931 271.31 569.516 270.512C570.102 269.714 570.839 269.039 571.685 268.525C572.531 268.012 573.471 267.67 574.449 267.52C575.427 267.37 576.426 267.414 577.387 267.649L809.172 320.764C811.717 321.404 813.942 322.95 815.43 325.113C816.917 327.275 817.566 329.906 817.253 332.512C816.94 335.118 815.689 337.521 813.732 339.27C811.775 341.02 809.248 341.996 806.623 342.016H806.652Z" fill="#8F8F8F" stroke="#263238" stroke-miterlimit="10"/>
<path d="M710.737 302.061L703.654 307.278C702.05 310.042 700.053 312.558 697.726 314.747C695.117 316.614 693.635 317.711 696.244 318.837C698.852 319.964 705.136 317.355 705.136 317.355C705.136 317.355 702.883 327.048 704.75 327.789C706.618 328.53 710.678 328.915 711.834 327.433C712.626 326.454 713.643 325.681 714.798 325.18C714.798 325.18 715.895 326.662 722.623 324.825C729.351 322.987 729.707 311.398 730.448 306.181C731.189 300.964 761.007 235.341 762.874 226.776C764.742 218.21 762.874 212.963 760.266 211.481C757.658 209.999 683.202 186.88 674.31 186.139C665.418 185.398 655.666 197.995 660.883 210.355C666.1 222.715 686.966 226.776 692.568 227.517C698.17 228.258 731.1 232.348 731.1 232.348C731.1 232.348 724.402 266.286 722.92 278.586C722.126 287.715 717.745 296.157 710.737 302.061Z" fill="white" stroke="#263238" stroke-miterlimit="10"/>
<path d="M603.5 284.544C602.903 288.168 602.635 291.838 602.7 295.511C603.233 296.845 607.501 299.245 608.628 295.244C609.754 291.243 609.962 284.544 608.094 283.388C606.227 282.232 605.101 281.965 603.5 284.544Z" fill="white" stroke="#263238" stroke-miterlimit="10"/>
<path d="M610.584 288.723C610.739 292.394 611.215 296.043 612.007 299.631C612.807 300.816 617.46 302.328 617.698 298.178C617.935 294.029 616.868 287.419 614.734 286.767C612.599 286.115 611.503 285.789 610.584 288.723Z" fill="white" stroke="#263238" stroke-miterlimit="10"/>
<path d="M617.401 289.79C617.571 293.459 618.047 297.108 618.824 300.698C619.624 301.883 624.307 303.395 624.544 299.245C624.781 295.096 623.685 288.486 621.58 287.834C619.476 287.182 618.439 286.856 617.401 289.79Z" fill="white" stroke="#263238" stroke-miterlimit="10"/>
<path d="M625.048 291.243C625.182 294.365 625.589 297.469 626.264 300.52C626.945 301.528 630.917 302.802 631.125 299.275C631.332 295.748 630.384 290.146 628.664 289.553C626.945 288.96 625.938 288.723 625.048 291.243Z" fill="white" stroke="#263238" stroke-miterlimit="10"/>
<path d="M582.1 285.285L582.752 272.54L573.86 259.38C567.932 243.226 530.437 229.502 503.672 222.922C476.907 216.342 445.311 220.788 431.38 227.843C417.45 234.897 414.278 239.165 414.278 239.165L413.419 256.09C409.625 275.267 444.244 298.297 490.779 307.515C537.314 316.733 578.098 308.641 581.892 289.435C582.156 288.068 582.226 286.671 582.1 285.285ZM541.849 287.508C514.58 291.569 489.653 288.575 467.956 279.09C454.177 272.679 441.171 264.724 429.187 255.378C435.115 242.011 466.948 236.972 503.287 244.174C537.729 250.991 564.316 266.464 567.25 280.454C559.217 284.155 550.64 286.536 541.849 287.508Z" fill="#8F8F8F" stroke="#263238" stroke-miterlimit="10"/>
<path d="M505.392 221.114C458.886 211.896 418.072 219.988 414.278 239.165C410.484 258.342 445.104 281.402 491.639 290.59C538.173 299.779 578.958 291.717 582.752 272.54C586.546 253.363 551.926 230.332 505.392 221.114ZM568.288 268.212C565.324 283.269 531.771 289.316 493.387 281.728C455.004 274.14 426.312 255.763 429.306 240.706C432.299 225.649 465.822 219.603 504.206 227.19C542.59 234.778 571.252 253.155 568.288 268.212Z" fill="white" stroke="#263238" stroke-miterlimit="10"/>
<path d="M1148.34 1421.12H1451.8" stroke="#263238" stroke-miterlimit="10"/>
<path d="M48.2834 1421.12H1123.95" stroke="#263238" stroke-miterlimit="10"/>
</svg>
